<svg width="29" height="43" viewBox="0 0 29 43" fill="none" xmlns="http://www.w3.org/2000/svg">
  <g clip-path="url(#ActorIconShape_svg__a)">
    <path d="M14.3337 7.83333C15.9445 7.83333 17.2503 6.5275 17.2503 4.91667C17.2503 3.30584 15.9445 2 14.3337 2C12.7228 2 11.417 3.30584 11.417 4.91667C11.417 6.5275 12.7228 7.83333 14.3337 7.83333Z" fill="#549BFF"/>
    <path d="M22.9692 17.8375L22.9721 17.8363L19.4645 10.0325C19.1816 9.40425 18.5568 9 17.8679 9H10.7991C10.1102 9 9.48541 9.40425 9.20308 10.0325L5.69491 17.8357L5.69783 17.8369C5.62666 17.9886 5.5835 18.1554 5.5835 18.3333C5.5835 18.9779 6.10558 19.5 6.75016 19.5C7.21625 19.5 7.61525 19.2247 7.8025 18.8297L10.2502 14.1502V28.4612C10.2502 29.2183 10.7921 29.909 11.5452 29.9907C12.4085 30.0846 13.1365 29.4237 13.1622 28.586L13.7099 20.6649C13.7327 20.3377 14.0051 20.0833 14.3335 20.0833C14.6619 20.0833 14.9343 20.3377 14.9571 20.6655L15.5048 28.5866C15.5305 29.4242 16.2585 30.0852 17.1218 29.9912C17.8749 29.9096 18.4168 29.2195 18.4168 28.4617V14.1502L20.8645 18.8292C21.0517 19.2247 21.4507 19.5 21.9168 19.5C22.5614 19.5 23.0835 18.9779 23.0835 18.3333C23.0835 18.1554 23.0403 17.9886 22.9692 17.8375Z" fill="#549BFF"/>
  </g>
  <path d="M1.22803 40L3.56803 32.8H5.07303L7.41303 40H6.32803L4.17303 33.43H4.44303L2.31303 40H1.22803ZM2.44303 38.375V37.395H6.20303V38.375H2.44303ZM10.7201 40.15C10.1667 40.15 9.69673 40.0267 9.31006 39.78C8.92339 39.5333 8.62673 39.195 8.42006 38.765C8.21673 38.335 8.11339 37.8467 8.11006 37.3C8.11339 36.7433 8.22006 36.2517 8.43006 35.825C8.64006 35.395 8.94006 35.0583 9.33006 34.815C9.72006 34.5717 10.1884 34.45 10.7351 34.45C11.3251 34.45 11.8284 34.5967 12.2451 34.89C12.6651 35.1833 12.9417 35.585 13.0751 36.095L12.0351 36.395C11.9317 36.0917 11.7617 35.8567 11.5251 35.69C11.2917 35.52 11.0234 35.435 10.7201 35.435C10.3767 35.435 10.0951 35.5167 9.87506 35.68C9.65506 35.84 9.49173 36.06 9.38506 36.34C9.27839 36.62 9.22339 36.94 9.22006 37.3C9.22339 37.8567 9.35006 38.3067 9.60006 38.65C9.85339 38.9933 10.2267 39.165 10.7201 39.165C11.0567 39.165 11.3284 39.0883 11.5351 38.935C11.7451 38.7783 11.9051 38.555 12.0151 38.265L13.0751 38.515C12.8984 39.0417 12.6067 39.4467 12.2001 39.73C11.7934 40.01 11.3001 40.15 10.7201 40.15ZM17.2837 40C16.9437 40.0667 16.6103 40.095 16.2837 40.085C15.957 40.075 15.6653 40.0117 15.4087 39.895C15.152 39.7783 14.9587 39.595 14.8287 39.345C14.712 39.1217 14.6487 38.895 14.6387 38.665C14.632 38.4317 14.6287 38.1683 14.6287 37.875V33.1H15.6787V37.825C15.6787 38.0417 15.6803 38.23 15.6837 38.39C15.6903 38.55 15.7253 38.685 15.7887 38.795C15.9087 39.0017 16.0987 39.12 16.3587 39.15C16.622 39.1767 16.9303 39.165 17.2837 39.115V40ZM13.5937 35.44V34.6H17.2837V35.44H13.5937ZM20.623 40.15C20.083 40.15 19.6147 40.0283 19.218 39.785C18.8214 39.5417 18.5147 39.2067 18.298 38.78C18.0847 38.35 17.978 37.855 17.978 37.295C17.978 36.7317 18.088 36.2367 18.308 35.81C18.528 35.38 18.8364 35.0467 19.233 34.81C19.6297 34.57 20.093 34.45 20.623 34.45C21.163 34.45 21.6314 34.5717 22.028 34.815C22.4247 35.0583 22.7314 35.3933 22.948 35.82C23.1647 36.2467 23.273 36.7383 23.273 37.295C23.273 37.8583 23.163 38.355 22.943 38.785C22.7264 39.2117 22.4197 39.5467 22.023 39.79C21.6264 40.03 21.1597 40.15 20.623 40.15ZM20.623 39.165C21.1397 39.165 21.5247 38.9917 21.778 38.645C22.0347 38.295 22.163 37.845 22.163 37.295C22.163 36.7317 22.033 36.2817 21.773 35.945C21.5164 35.605 21.133 35.435 20.623 35.435C20.273 35.435 19.9847 35.515 19.758 35.675C19.5314 35.8317 19.363 36.05 19.253 36.33C19.143 36.6067 19.088 36.9283 19.088 37.295C19.088 37.8617 19.218 38.315 19.478 38.655C19.738 38.995 20.1197 39.165 20.623 39.165ZM24.4718 40V34.6H25.4018V35.91L25.2718 35.74C25.3384 35.5667 25.4251 35.4083 25.5318 35.265C25.6384 35.1183 25.7618 34.9983 25.9018 34.905C26.0384 34.805 26.1901 34.7283 26.3568 34.675C26.5268 34.6183 26.7001 34.585 26.8768 34.575C27.0534 34.5617 27.2234 34.57 27.3868 34.6V35.58C27.2101 35.5333 27.0134 35.52 26.7968 35.54C26.5834 35.56 26.3868 35.6283 26.2068 35.745C26.0368 35.855 25.9018 35.9883 25.8018 36.145C25.7051 36.3017 25.6351 36.4767 25.5918 36.67C25.5484 36.86 25.5268 37.0617 25.5268 37.275V40H24.4718Z" fill="#686583"/>
  <defs>
    <clipPath id="ActorIconShape_svg__a">
      <rect width="28" height="28" fill="white" transform="translate(0.333496 2)"/>
    </clipPath>
  </defs>
</svg>
