<svg width="61" height="40" viewBox="0 0 61 40" fill="none" xmlns="http://www.w3.org/2000/svg">
  <path d="M2 0.6H59C59.7732 0.6 60.4 1.2268 60.4 2V38C60.4 38.7732 59.7732 39.4 59 39.4H2C1.2268 39.4 0.6 38.7732 0.6 38V2C0.6 1.2268 1.2268 0.6 2 0.6Z" fill="white" stroke="#686583" stroke-width="1.2"/>
  <path d="M7.86585 10.12C7.28985 10.12 6.79251 9.99467 6.37385 9.744C5.95785 9.49333 5.63651 9.14267 5.40985 8.692C5.18585 8.24133 5.07385 7.71733 5.07385 7.12C5.07385 6.52267 5.18585 5.99867 5.40985 5.548C5.63651 5.09733 5.95785 4.74667 6.37385 4.496C6.79251 4.24533 7.28985 4.12 7.86585 4.12C8.52718 4.12 9.08185 4.284 9.52985 4.612C9.98051 4.94 10.2978 5.384 10.4818 5.944L9.38585 6.248C9.27918 5.89867 9.09918 5.628 8.84585 5.436C8.59251 5.24133 8.26585 5.144 7.86585 5.144C7.50051 5.144 7.19518 5.22533 6.94985 5.388C6.70718 5.55067 6.52451 5.78 6.40185 6.076C6.27918 6.372 6.21785 6.72 6.21785 7.12C6.21785 7.52 6.27918 7.868 6.40185 8.164C6.52451 8.46 6.70718 8.68933 6.94985 8.852C7.19518 9.01467 7.50051 9.096 7.86585 9.096C8.26585 9.096 8.59251 8.99867 8.84585 8.804C9.09918 8.60933 9.27918 8.33867 9.38585 7.992L10.4818 8.296C10.2978 8.856 9.98051 9.3 9.52985 9.628C9.08185 9.956 8.52718 10.12 7.86585 10.12ZM11.5226 10V4.24H12.6106V8.984H15.0906V10H11.5226ZM15.4507 10L17.2107 4.24H18.8347L20.5947 10H19.4747L17.9067 4.92H18.1147L16.5707 10H15.4507ZM16.5067 8.8V7.784H19.5467V8.8H16.5067ZM23.4114 10.12C22.9847 10.12 22.5994 10.0453 22.2554 9.896C21.9141 9.744 21.6327 9.528 21.4114 9.248C21.1927 8.96533 21.0541 8.62933 20.9954 8.24L22.1314 8.072C22.2114 8.40267 22.3767 8.65733 22.6274 8.836C22.8781 9.01467 23.1634 9.104 23.4834 9.104C23.6621 9.104 23.8354 9.076 24.0034 9.02C24.1714 8.964 24.3087 8.88133 24.4154 8.772C24.5247 8.66267 24.5794 8.528 24.5794 8.368C24.5794 8.30933 24.5701 8.25333 24.5514 8.2C24.5354 8.144 24.5074 8.092 24.4674 8.044C24.4274 7.996 24.3701 7.95067 24.2954 7.908C24.2234 7.86533 24.1314 7.82667 24.0194 7.792L22.5234 7.352C22.4114 7.32 22.2807 7.27467 22.1314 7.216C21.9847 7.15733 21.8421 7.07333 21.7034 6.964C21.5647 6.85467 21.4487 6.71067 21.3554 6.532C21.2647 6.35067 21.2194 6.12267 21.2194 5.848C21.2194 5.46133 21.3167 5.14 21.5114 4.884C21.7061 4.628 21.9661 4.43733 22.2914 4.312C22.6167 4.18667 22.9767 4.12533 23.3714 4.128C23.7687 4.13333 24.1234 4.20133 24.4354 4.332C24.7474 4.46267 25.0087 4.65333 25.2194 4.904C25.4301 5.152 25.5821 5.456 25.6754 5.816L24.4994 6.016C24.4567 5.82933 24.3781 5.672 24.2634 5.544C24.1487 5.416 24.0114 5.31867 23.8514 5.252C23.6941 5.18533 23.5287 5.14933 23.3554 5.144C23.1847 5.13867 23.0234 5.16267 22.8714 5.216C22.7221 5.26667 22.5994 5.34133 22.5034 5.44C22.4101 5.53867 22.3634 5.656 22.3634 5.792C22.3634 5.91733 22.4021 6.02 22.4794 6.1C22.5567 6.17733 22.6541 6.24 22.7714 6.288C22.8887 6.336 23.0087 6.376 23.1314 6.408L24.1314 6.68C24.2807 6.72 24.4461 6.77333 24.6274 6.84C24.8087 6.904 24.9821 6.99467 25.1474 7.112C25.3154 7.22667 25.4527 7.37867 25.5594 7.568C25.6687 7.75733 25.7234 7.99733 25.7234 8.288C25.7234 8.59733 25.6581 8.868 25.5274 9.1C25.3994 9.32933 25.2261 9.52 25.0074 9.672C24.7887 9.82133 24.5407 9.93333 24.2634 10.008C23.9887 10.0827 23.7047 10.12 23.4114 10.12ZM28.9758 10.12C28.5491 10.12 28.1638 10.0453 27.8198 9.896C27.4785 9.744 27.1971 9.528 26.9758 9.248C26.7571 8.96533 26.6185 8.62933 26.5598 8.24L27.6958 8.072C27.7758 8.40267 27.9411 8.65733 28.1918 8.836C28.4425 9.01467 28.7278 9.104 29.0478 9.104C29.2265 9.104 29.3998 9.076 29.5678 9.02C29.7358 8.964 29.8731 8.88133 29.9798 8.772C30.0891 8.66267 30.1438 8.528 30.1438 8.368C30.1438 8.30933 30.1345 8.25333 30.1158 8.2C30.0998 8.144 30.0718 8.092 30.0318 8.044C29.9918 7.996 29.9345 7.95067 29.8598 7.908C29.7878 7.86533 29.6958 7.82667 29.5838 7.792L28.0878 7.352C27.9758 7.32 27.8451 7.27467 27.6958 7.216C27.5491 7.15733 27.4065 7.07333 27.2678 6.964C27.1291 6.85467 27.0131 6.71067 26.9198 6.532C26.8291 6.35067 26.7838 6.12267 26.7838 5.848C26.7838 5.46133 26.8811 5.14 27.0758 4.884C27.2705 4.628 27.5305 4.43733 27.8558 4.312C28.1811 4.18667 28.5411 4.12533 28.9358 4.128C29.3331 4.13333 29.6878 4.20133 29.9998 4.332C30.3118 4.46267 30.5731 4.65333 30.7838 4.904C30.9945 5.152 31.1465 5.456 31.2398 5.816L30.0638 6.016C30.0211 5.82933 29.9425 5.672 29.8278 5.544C29.7131 5.416 29.5758 5.31867 29.4158 5.252C29.2585 5.18533 29.0931 5.14933 28.9198 5.144C28.7491 5.13867 28.5878 5.16267 28.4358 5.216C28.2865 5.26667 28.1638 5.34133 28.0678 5.44C27.9745 5.53867 27.9278 5.656 27.9278 5.792C27.9278 5.91733 27.9665 6.02 28.0438 6.1C28.1211 6.17733 28.2185 6.24 28.3358 6.288C28.4531 6.336 28.5731 6.376 28.6958 6.408L29.6958 6.68C29.8451 6.72 30.0105 6.77333 30.1918 6.84C30.3731 6.904 30.5465 6.99467 30.7118 7.112C30.8798 7.22667 31.0171 7.37867 31.1238 7.568C31.2331 7.75733 31.2878 7.99733 31.2878 8.288C31.2878 8.59733 31.2225 8.868 31.0918 9.1C30.9638 9.32933 30.7905 9.52 30.5718 9.672C30.3531 9.82133 30.1051 9.93333 29.8278 10.008C29.5531 10.0827 29.2691 10.12 28.9758 10.12ZM33.9285 10V4.24H35.0325L37.5365 8.08V4.24H38.6405V10H37.5365L35.0325 6.16V10H33.9285ZM39.4367 10L41.1967 4.24H42.8207L44.5807 10H43.4607L41.8927 4.92H42.1007L40.5567 10H39.4367ZM40.4927 8.8V7.784H43.5327V8.8H40.4927ZM45.3776 10V4.24H46.3536L48.2576 8.064L50.1616 4.24H51.1376V10H50.1216V6.56L48.4496 10H48.0656L46.3936 6.56V10H45.3776ZM52.3404 10V4.24H56.1004V5.256H53.4284V6.488H55.6204V7.504H53.4284V8.984H56.1004V10H52.3404Z" fill="#686583"/>
  <line x1="1" y1="13.4" x2="60" y2="13.4" stroke="#686583" stroke-width="1.2"/>
  <line x1="2" y1="26.4" x2="59" y2="26.4" stroke="#D9D7E5" stroke-width="1.2"/>
</svg>
