<svg width="23" height="22" viewBox="0 0 23 22" fill="none" xmlns="http://www.w3.org/2000/svg">
  <path d="M0.933496 0.6H21.7335V21.4H0.933496V0.6Z" fill="white" stroke="#686583" stroke-width="1.2"/>
  <path d="M11.5501 13.6878L14.0268 15.2569C14.3434 15.4575 14.7365 15.1592 14.6425 14.7896L13.9269 11.9747C13.9068 11.8963 13.9092 11.8138 13.9338 11.7367C13.9585 11.6596 14.0044 11.591 14.0663 11.5388L16.2873 9.69026C16.5791 9.44737 16.4285 8.96304 16.0535 8.93871L13.1531 8.75047C13.075 8.74489 13 8.71723 12.937 8.67071C12.874 8.62419 12.8255 8.56073 12.7972 8.48772L11.7154 5.7636C11.686 5.6861 11.6337 5.61938 11.5655 5.5723C11.4973 5.52521 11.4164 5.5 11.3335 5.5C11.2506 5.5 11.1696 5.52521 11.1014 5.5723C11.0332 5.61938 10.9809 5.6861 10.9515 5.7636L9.86977 8.48772C9.84142 8.56073 9.79292 8.62419 9.72991 8.67071C9.6669 8.71723 9.59197 8.74489 9.51384 8.75047L6.61338 8.93871C6.23845 8.96304 6.08782 9.44737 6.37965 9.69026L8.60063 11.5388C8.66253 11.591 8.70844 11.6596 8.73309 11.7367C8.75774 11.8138 8.76013 11.8963 8.73998 11.9747L8.07635 14.5852C7.96362 15.0287 8.4353 15.3867 8.81521 15.146L11.1168 13.6878C11.1816 13.6466 11.2567 13.6247 11.3335 13.6247C11.4102 13.6247 11.4853 13.6466 11.5501 13.6878Z" fill="#686583"/>
</svg>
