<svg width="77" height="23" viewBox="0 0 77 23" fill="none" xmlns="http://www.w3.org/2000/svg">
  <path d="M0.346008 2.16197C0.346008 1.01817 1.25731 0.0909424 2.38146 0.0909424H74.3008C75.4249 0.0909424 76.3363 1.01817 76.3363 2.16197V20.1108C76.3363 21.2546 75.4249 22.1819 74.3008 22.1819H2.38146C1.25731 22.1819 0.346008 21.2546 0.346008 20.1108V2.16197Z" fill="white"/>
  <path fill-rule="evenodd" clip-rule="evenodd" d="M74.3008 0.781283H2.38146C1.63203 0.781283 1.02449 1.39944 1.02449 2.16197V20.1108C1.02449 20.8734 1.63203 21.4915 2.38146 21.4915H74.3008C75.0502 21.4915 75.6578 20.8734 75.6578 20.1108V2.16197C75.6578 1.39944 75.0502 0.781283 74.3008 0.781283ZM2.38146 0.0909424C1.25731 0.0909424 0.346008 1.01817 0.346008 2.16197V20.1108C0.346008 21.2546 1.25731 22.1819 2.38146 22.1819H74.3008C75.4249 22.1819 76.3363 21.2546 76.3363 20.1108V2.16197C76.3363 1.01817 75.4249 0.0909424 74.3008 0.0909424H2.38146Z" fill="#D9D7E5"/>
  <path d="M68.6193 9.63635C68.9147 9.63635 69.0705 9.98594 68.8729 10.2053L66.5686 12.7639C66.4331 12.9144 66.197 12.9144 66.0614 12.7639L63.7571 10.2053C63.5595 9.98594 63.7153 9.63635 64.0107 9.63635H68.6193Z" fill="#9C99B2"/>
  <path d="M8.817 7.775C9.52386 7.775 10.1416 7.91182 10.6701 8.18546C11.205 8.45273 11.6158 8.84091 11.9023 9.35C12.1953 9.85273 12.3417 10.4414 12.3417 11.1159C12.3417 11.7905 12.1953 12.3759 11.9023 12.8723C11.6158 13.3686 11.205 13.7505 10.6701 14.0177C10.1416 14.2786 9.52386 14.4091 8.817 14.4091H6.64868V7.775H8.817ZM8.817 13.5214C9.59391 13.5214 10.1893 13.3114 10.6032 12.8914C11.0172 12.4714 11.2241 11.8795 11.2241 11.1159C11.2241 10.3459 11.0172 9.74455 10.6032 9.31182C10.1893 8.87909 9.59391 8.66273 8.817 8.66273H7.73762V13.5214H8.817Z" fill="#131126"/>
  <path d="M14.5099 9.91319C14.6691 9.64591 14.8792 9.4391 15.1403 9.29273C15.4078 9.14 15.723 9.06364 16.086 9.06364V10.19H15.809C15.3823 10.19 15.0575 10.2982 14.8347 10.5145C14.6182 10.7309 14.5099 11.1064 14.5099 11.6409V14.4091H13.421V9.14955H14.5099V9.91319Z" fill="#131126"/>
  <path d="M19.3699 14.495C18.8732 14.495 18.4242 14.3836 18.0231 14.1609C17.6219 13.9318 17.3066 13.6136 17.0774 13.2064C16.8481 12.7927 16.7335 12.3155 16.7335 11.7745C16.7335 11.24 16.8513 10.7659 17.0869 10.3523C17.3226 9.93864 17.6442 9.62046 18.0517 9.39773C18.4593 9.175 18.9146 9.06364 19.4177 9.06364C19.9207 9.06364 20.376 9.175 20.7836 9.39773C21.1912 9.62046 21.5127 9.93864 21.7484 10.3523C21.984 10.7659 22.1018 11.24 22.1018 11.7745C22.1018 12.3091 21.9808 12.7832 21.7388 13.1968C21.4968 13.6105 21.1657 13.9318 20.7454 14.1609C20.3315 14.3836 19.873 14.495 19.3699 14.495ZM19.3699 13.55C19.6501 13.55 19.9112 13.4832 20.1532 13.3495C20.4015 13.2159 20.6021 13.0155 20.7549 12.7482C20.9078 12.4809 20.9842 12.1564 20.9842 11.7745C20.9842 11.3927 20.911 11.0714 20.7645 10.8105C20.618 10.5432 20.4238 10.3427 20.1818 10.2091C19.9398 10.0755 19.6787 10.0086 19.3985 10.0086C19.1184 10.0086 18.8573 10.0755 18.6153 10.2091C18.3797 10.3427 18.1918 10.5432 18.0517 10.8105C17.9116 11.0714 17.8416 11.3927 17.8416 11.7745C17.8416 12.3409 17.9848 12.78 18.2714 13.0918C18.5643 13.3973 18.9305 13.55 19.3699 13.55Z" fill="#131126"/>
  <path d="M24.2672 9.92273C24.4519 9.68091 24.7034 9.47728 25.0218 9.31182C25.3402 9.14637 25.7 9.06364 26.1012 9.06364C26.5597 9.06364 26.9768 9.17819 27.3525 9.40728C27.7346 9.63 28.0339 9.945 28.2504 10.3523C28.4669 10.7595 28.5752 11.2273 28.5752 11.7555C28.5752 12.2836 28.4669 12.7577 28.2504 13.1777C28.0339 13.5914 27.7346 13.9159 27.3525 14.1514C26.9768 14.3805 26.5597 14.495 26.1012 14.495C25.7 14.495 25.3434 14.4155 25.0314 14.2564C24.7193 14.0909 24.4646 13.8873 24.2672 13.6455V16.91H23.1783V9.14955H24.2672V9.92273ZM27.4671 11.7555C27.4671 11.3927 27.3907 11.0809 27.2379 10.82C27.0914 10.5527 26.894 10.3523 26.6457 10.2186C26.4037 10.0786 26.1426 10.0086 25.8624 10.0086C25.5886 10.0086 25.3275 10.0786 25.0791 10.2186C24.8371 10.3586 24.6397 10.5623 24.4869 10.8295C24.3404 11.0968 24.2672 11.4118 24.2672 11.7745C24.2672 12.1373 24.3404 12.4555 24.4869 12.7291C24.6397 12.9964 24.8371 13.2 25.0791 13.34C25.3275 13.48 25.5886 13.55 25.8624 13.55C26.1426 13.55 26.4037 13.48 26.6457 13.34C26.894 13.1936 27.0914 12.9836 27.2379 12.71C27.3907 12.4364 27.4671 12.1182 27.4671 11.7555Z" fill="#131126"/>
  <path d="M29.2891 11.7555C29.2891 11.2273 29.3973 10.7595 29.6138 10.3523C29.8367 9.945 30.136 9.63 30.5117 9.40728C30.8938 9.17819 31.3173 9.06364 31.7822 9.06364C32.126 9.06364 32.4635 9.14 32.7947 9.29273C33.1322 9.4391 33.3996 9.63637 33.5971 9.88455V7.34546H34.6955V14.4091H33.5971V13.6168C33.4187 13.8714 33.1704 14.0814 32.852 14.2468C32.54 14.4123 32.1802 14.495 31.7726 14.495C31.3141 14.495 30.8938 14.3805 30.5117 14.1514C30.136 13.9159 29.8367 13.5914 29.6138 13.1777C29.3973 12.7577 29.2891 12.2836 29.2891 11.7555ZM33.5971 11.7745C33.5971 11.4118 33.5206 11.0968 33.3678 10.8295C33.2213 10.5623 33.0271 10.3586 32.7851 10.2186C32.5431 10.0786 32.282 10.0086 32.0019 10.0086C31.7217 10.0086 31.4606 10.0786 31.2186 10.2186C30.9766 10.3523 30.7792 10.5527 30.6264 10.82C30.4799 11.0809 30.4067 11.3927 30.4067 11.7555C30.4067 12.1182 30.4799 12.4364 30.6264 12.71C30.7792 12.9836 30.9766 13.1936 31.2186 13.34C31.4669 13.48 31.728 13.55 32.0019 13.55C32.282 13.55 32.5431 13.48 32.7851 13.34C33.0271 13.2 33.2213 12.9964 33.3678 12.7291C33.5206 12.4555 33.5971 12.1373 33.5971 11.7745Z" fill="#131126"/>
  <path d="M38.4088 14.495C37.9121 14.495 37.4631 14.3836 37.0619 14.1609C36.6607 13.9318 36.3455 13.6136 36.1163 13.2064C35.887 12.7927 35.7724 12.3155 35.7724 11.7745C35.7724 11.24 35.8902 10.7659 36.1258 10.3523C36.3614 9.93864 36.683 9.62046 37.0906 9.39773C37.4981 9.175 37.9534 9.06364 38.4565 9.06364C38.9596 9.06364 39.4149 9.175 39.8225 9.39773C40.23 9.62046 40.5516 9.93864 40.7872 10.3523C41.0229 10.7659 41.1407 11.24 41.1407 11.7745C41.1407 12.3091 41.0197 12.7832 40.7777 13.1968C40.5357 13.6105 40.2046 13.9318 39.7843 14.1609C39.3703 14.3836 38.9118 14.495 38.4088 14.495ZM38.4088 13.55C38.689 13.55 38.95 13.4832 39.192 13.3495C39.4404 13.2159 39.641 13.0155 39.7938 12.7482C39.9466 12.4809 40.0231 12.1564 40.0231 11.7745C40.0231 11.3927 39.9498 11.0714 39.8034 10.8105C39.6569 10.5432 39.4627 10.3427 39.2207 10.2091C38.9787 10.0755 38.7176 10.0086 38.4374 10.0086C38.1572 10.0086 37.8961 10.0755 37.6542 10.2091C37.4185 10.3427 37.2307 10.5432 37.0906 10.8105C36.9505 11.0714 36.8804 11.3927 36.8804 11.7745C36.8804 12.3409 37.0237 12.78 37.3103 13.0918C37.6032 13.3973 37.9694 13.55 38.4088 13.55Z" fill="#131126"/>
  <path d="M49.2857 9.14955L47.6523 14.4091H46.506L45.4457 10.5241L44.3855 14.4091H43.2392L41.5962 9.14955H42.7043L43.8028 13.3782L44.9204 9.14955H46.0571L47.1269 13.3591L48.2158 9.14955H49.2857Z" fill="#131126"/>
  <path d="M52.7549 9.06364C53.1689 9.06364 53.5382 9.14955 53.863 9.32137C54.1941 9.49319 54.452 9.74773 54.6367 10.085C54.8214 10.4223 54.9137 10.8296 54.9137 11.3068V14.4091H53.8343V11.4691C53.8343 10.9982 53.7165 10.6386 53.4809 10.3905C53.2453 10.1359 52.9237 10.0086 52.5161 10.0086C52.1086 10.0086 51.7838 10.1359 51.5418 10.3905C51.3062 10.6386 51.1884 10.9982 51.1884 11.4691V14.4091H50.0995V9.14955H51.1884V9.75091C51.3667 9.53455 51.5928 9.36591 51.8666 9.245C52.1468 9.1241 52.4429 9.06364 52.7549 9.06364Z" fill="#131126"/>
</svg>
