<svg width="50" height="36" viewBox="0 0 50 36" fill="none" xmlns="http://www.w3.org/2000/svg">
  <path d="M10 35L41 1" stroke="#686583" stroke-width="2" stroke-linecap="round" stroke-dasharray="4 3"/>
  <path d="M1 19C1 16.7909 2.791 15 5 15H45C47.209 15 49 16.7909 49 19V24C49 26.2091 47.209 28 45 28H5C2.791 28 1 26.2091 1 24V19Z" fill="#F8F8FA"/>
  <path d="M7 24.5L4 21.5L7 18.5" stroke="#686583" stroke-linecap="round" stroke-linejoin="round"/>
  <path d="M4 24.5L1 21.5L4 18.5" stroke="#686583" stroke-linecap="round" stroke-linejoin="round"/>
  <path d="M11.248 25.1501C10.712 25.1501 10.24 25.0333 9.83301 24.8C9.43001 24.5633 9.11501 24.235 8.88801 23.815C8.66501 23.3917 8.55301 22.9018 8.55301 22.3451C8.55301 21.7551 8.66301 21.2434 8.88301 20.8101C9.10701 20.3768 9.41701 20.0417 9.81301 19.805C10.21 19.5683 10.672 19.4501 11.198 19.4501C11.748 19.4501 12.217 19.5783 12.603 19.835C12.99 20.0883 13.278 20.45 13.468 20.92C13.662 21.39 13.738 21.9484 13.698 22.5951H12.653V22.215C12.647 21.5883 12.527 21.1251 12.293 20.8251C12.063 20.5251 11.712 20.375 11.238 20.375C10.715 20.375 10.322 20.54 10.058 20.87C9.79501 21.2 9.66301 21.6767 9.66301 22.3C9.66301 22.8933 9.79501 23.3533 10.058 23.68C10.322 24.0033 10.702 24.1651 11.198 24.1651C11.525 24.1651 11.807 24.0917 12.043 23.945C12.283 23.795 12.47 23.5817 12.603 23.305L13.628 23.6301C13.418 24.1134 13.1 24.4884 12.673 24.7551C12.247 25.0184 11.772 25.1501 11.248 25.1501ZM9.32301 22.5951V21.78H13.178V22.5951H9.32301ZM14.125 25L16.145 22.2701L14.17 19.6H15.41L16.755 21.4551L18.085 19.6H19.325L17.35 22.2701L19.375 25H18.13L16.755 23.085L15.37 25H14.125ZM23.364 25C23.024 25.0667 22.691 25.095 22.364 25.085C22.037 25.075 21.746 25.0118 21.489 24.8951C21.232 24.7784 21.039 24.5951 20.909 24.3451C20.792 24.1218 20.729 23.8951 20.719 23.6651C20.712 23.4318 20.709 23.1683 20.709 22.875V18.1H21.759V22.8251C21.759 23.0418 21.761 23.23 21.764 23.39C21.771 23.55 21.806 23.685 21.869 23.795C21.989 24.0017 22.179 24.1201 22.439 24.1501C22.702 24.1768 23.011 24.1651 23.364 24.1151V25ZM19.674 20.44V19.6H23.364V20.44H19.674ZM26.753 25.1501C26.217 25.1501 25.745 25.0333 25.338 24.8C24.935 24.5633 24.62 24.235 24.393 23.815C24.17 23.3917 24.058 22.9018 24.058 22.3451C24.058 21.7551 24.168 21.2434 24.388 20.8101C24.612 20.3768 24.922 20.0417 25.318 19.805C25.715 19.5683 26.177 19.4501 26.703 19.4501C27.253 19.4501 27.722 19.5783 28.108 19.835C28.495 20.0883 28.783 20.45 28.973 20.92C29.167 21.39 29.243 21.9484 29.203 22.5951H28.158V22.215C28.152 21.5883 28.032 21.1251 27.798 20.8251C27.568 20.5251 27.217 20.375 26.743 20.375C26.22 20.375 25.827 20.54 25.563 20.87C25.3 21.2 25.168 21.6767 25.168 22.3C25.168 22.8933 25.3 23.3533 25.563 23.68C25.827 24.0033 26.207 24.1651 26.703 24.1651C27.03 24.1651 27.312 24.0917 27.548 23.945C27.788 23.795 27.975 23.5817 28.108 23.305L29.133 23.6301C28.923 24.1134 28.605 24.4884 28.178 24.7551C27.752 25.0184 27.277 25.1501 26.753 25.1501ZM24.828 22.5951V21.78H28.683V22.5951H24.828ZM34.069 25V22.3451C34.069 22.1351 34.05 21.9201 34.014 21.7001C33.98 21.4768 33.914 21.2701 33.814 21.0801C33.717 20.8901 33.579 20.7367 33.399 20.62C33.222 20.5033 32.99 20.445 32.704 20.445C32.517 20.445 32.34 20.4768 32.174 20.5401C32.007 20.6001 31.86 20.6983 31.734 20.835C31.61 20.9717 31.512 21.1517 31.439 21.375C31.369 21.5983 31.334 21.87 31.334 22.19L30.684 21.945C30.684 21.455 30.775 21.0234 30.959 20.6501C31.142 20.2734 31.405 19.9801 31.749 19.7701C32.092 19.5601 32.507 19.455 32.994 19.455C33.367 19.455 33.68 19.515 33.934 19.635C34.187 19.755 34.392 19.9134 34.549 20.1101C34.709 20.3034 34.83 20.515 34.914 20.745C34.997 20.975 35.054 21.2 35.084 21.42C35.114 21.64 35.129 21.8333 35.129 22V25H34.069ZM30.274 25V19.6H31.209V21.16H31.334V25H30.274ZM38.608 25.1501C38.104 25.1501 37.669 25.0251 37.303 24.7751C36.939 24.5251 36.658 24.1851 36.458 23.7551C36.261 23.3218 36.163 22.835 36.163 22.295C36.163 21.7517 36.263 21.2667 36.463 20.84C36.663 20.41 36.946 20.0718 37.313 19.8251C37.683 19.5751 38.121 19.4501 38.628 19.4501C39.138 19.4501 39.566 19.5751 39.913 19.8251C40.263 20.0718 40.526 20.41 40.703 20.84C40.883 21.27 40.973 21.755 40.973 22.295C40.973 22.835 40.883 23.32 40.703 23.75C40.523 24.18 40.258 24.5218 39.908 24.7751C39.558 25.0251 39.124 25.1501 38.608 25.1501ZM38.753 24.2051C39.096 24.2051 39.376 24.1233 39.593 23.96C39.809 23.7967 39.968 23.5717 40.068 23.285C40.168 22.9983 40.218 22.6683 40.218 22.295C40.218 21.9217 40.166 21.5917 40.063 21.305C39.963 21.0183 39.806 20.795 39.593 20.635C39.383 20.475 39.114 20.3951 38.788 20.3951C38.441 20.3951 38.156 20.4801 37.933 20.6501C37.709 20.8201 37.543 21.0483 37.433 21.335C37.326 21.6217 37.273 21.9417 37.273 22.295C37.273 22.6517 37.326 22.975 37.433 23.265C37.543 23.5517 37.706 23.7801 37.923 23.9501C38.143 24.1201 38.419 24.2051 38.753 24.2051ZM40.218 25V21.1151H40.098V17.8H41.148V25H40.218Z" fill="#686583"/>
  <path d="M43 18.5L46 21.5L43 24.5" stroke="#686583" stroke-linecap="round" stroke-linejoin="round"/>
  <path d="M46 18.5L49 21.5L46 24.5" stroke="#686583" stroke-linecap="round" stroke-linejoin="round"/>
  <path d="M33.836 1.44921L40.9 1.12561L41.223 8.18931" stroke="#686583" stroke-width="2" stroke-linecap="round" stroke-linejoin="round"/>
</svg>
