<svg width="52" height="36" viewBox="0 0 52 36" fill="none" xmlns="http://www.w3.org/2000/svg">
  <path d="M11 35L42 1" stroke="#686583" stroke-width="2" stroke-linecap="round" stroke-dasharray="4 3"/>
  <path d="M34.8359 1.44921L41.8996 1.12561L42.2232 8.18931" stroke="#686583" stroke-width="2" stroke-linecap="round" stroke-linejoin="round"/>
  <path d="M1 19C1 16.7909 2.7909 15 5 15H47C49.2091 15 51 16.7909 51 19V24C51 26.2091 49.2091 28 47 28H5C2.7909 28 1 26.2091 1 24V19Z" fill="#F8F8FA"/>
  <path d="M7 24.5L4 21.5L7 18.5" stroke="#686583" stroke-linecap="round" stroke-linejoin="round"/>
  <path d="M4 24.5L1 21.5L4 18.5" stroke="#686583" stroke-linecap="round" stroke-linejoin="round"/>
  <path d="M8.94141 18.715V17.7H9.98641V18.715H8.94141ZM8.94141 25V19.6H9.98641V25H8.94141ZM15.3779 25V22.345C15.3779 22.135 15.3596 21.92 15.3229 21.7C15.2896 21.4767 15.2229 21.27 15.1229 21.08C15.0262 20.89 14.8879 20.7367 14.7079 20.62C14.5312 20.5033 14.2996 20.445 14.0129 20.445C13.8262 20.445 13.6496 20.4767 13.4829 20.54C13.3162 20.6 13.1696 20.6983 13.0429 20.835C12.9196 20.9717 12.8212 21.1517 12.7479 21.375C12.6779 21.5983 12.6429 21.87 12.6429 22.19L11.9929 21.945C11.9929 21.455 12.0846 21.0233 12.2679 20.65C12.4512 20.2733 12.7146 19.98 13.0579 19.77C13.4012 19.56 13.8162 19.455 14.3029 19.455C14.6762 19.455 14.9896 19.515 15.2429 19.635C15.4962 19.755 15.7012 19.9133 15.8579 20.11C16.0179 20.3033 16.1396 20.515 16.2229 20.745C16.3062 20.975 16.3629 21.2 16.3929 21.42C16.4229 21.64 16.4379 21.8333 16.4379 22V25H15.3779ZM11.5829 25V19.6H12.5179V21.16H12.6429V25H11.5829ZM20.0819 25.15C19.5285 25.15 19.0585 25.0267 18.6719 24.78C18.2852 24.5333 17.9885 24.195 17.7819 23.765C17.5785 23.335 17.4752 22.8467 17.4719 22.3C17.4752 21.7433 17.5819 21.2517 17.7919 20.825C18.0019 20.395 18.3019 20.0583 18.6919 19.815C19.0819 19.5717 19.5502 19.45 20.0969 19.45C20.6869 19.45 21.1902 19.5967 21.6069 19.89C22.0269 20.1833 22.3035 20.585 22.4369 21.095L21.3969 21.395C21.2935 21.0917 21.1235 20.8567 20.8869 20.69C20.6535 20.52 20.3852 20.435 20.0819 20.435C19.7385 20.435 19.4569 20.5167 19.2369 20.68C19.0169 20.84 18.8535 21.06 18.7469 21.34C18.6402 21.62 18.5852 21.94 18.5819 22.3C18.5852 22.8567 18.7119 23.3067 18.9619 23.65C19.2152 23.9933 19.5885 24.165 20.0819 24.165C20.4185 24.165 20.6902 24.0883 20.8969 23.935C21.1069 23.7783 21.2669 23.555 21.3769 23.265L22.4369 23.515C22.2602 24.0417 21.9685 24.4467 21.5619 24.73C21.1552 25.01 20.6619 25.15 20.0819 25.15ZM23.509 25V17.65H24.554V25H23.509ZM28.1905 25.145C27.8171 25.145 27.5038 25.085 27.2505 24.965C26.9971 24.845 26.7905 24.6883 26.6305 24.495C26.4738 24.2983 26.3538 24.085 26.2705 23.855C26.1871 23.625 26.1305 23.4 26.1005 23.18C26.0705 22.96 26.0555 22.7667 26.0555 22.6V19.6H27.1155V22.255C27.1155 22.465 27.1321 22.6817 27.1655 22.905C27.2021 23.125 27.2688 23.33 27.3655 23.52C27.4655 23.71 27.6038 23.8633 27.7805 23.98C27.9605 24.0967 28.1938 24.155 28.4805 24.155C28.6671 24.155 28.8438 24.125 29.0105 24.065C29.1771 24.0017 29.3221 23.9017 29.4455 23.765C29.5721 23.6283 29.6705 23.4483 29.7405 23.225C29.8138 23.0017 29.8505 22.73 29.8505 22.41L30.5005 22.655C30.5005 23.145 30.4088 23.5783 30.2255 23.955C30.0421 24.3283 29.7788 24.62 29.4355 24.83C29.0921 25.04 28.6771 25.145 28.1905 25.145ZM29.9755 25V23.44H29.8505V19.6H30.9055V25H29.9755ZM34.5528 25.15C34.0495 25.15 33.6145 25.025 33.2478 24.775C32.8845 24.525 32.6028 24.185 32.4028 23.755C32.2061 23.3217 32.1078 22.835 32.1078 22.295C32.1078 21.7517 32.2078 21.2667 32.4078 20.84C32.6078 20.41 32.8911 20.0717 33.2578 19.825C33.6278 19.575 34.0661 19.45 34.5728 19.45C35.0828 19.45 35.5111 19.575 35.8578 19.825C36.2078 20.0717 36.4711 20.41 36.6478 20.84C36.8278 21.27 36.9178 21.755 36.9178 22.295C36.9178 22.835 36.8278 23.32 36.6478 23.75C36.4678 24.18 36.2028 24.5217 35.8528 24.775C35.5028 25.025 35.0695 25.15 34.5528 25.15ZM34.6978 24.205C35.0411 24.205 35.3211 24.1233 35.5378 23.96C35.7545 23.7967 35.9128 23.5717 36.0128 23.285C36.1128 22.9983 36.1628 22.6683 36.1628 22.295C36.1628 21.9217 36.1111 21.5917 36.0078 21.305C35.9078 21.0183 35.7511 20.795 35.5378 20.635C35.3278 20.475 35.0595 20.395 34.7328 20.395C34.3861 20.395 34.1011 20.48 33.8778 20.65C33.6545 20.82 33.4878 21.0483 33.3778 21.335C33.2711 21.6217 33.2178 21.9417 33.2178 22.295C33.2178 22.6517 33.2711 22.975 33.3778 23.265C33.4878 23.5517 33.6511 23.78 33.8678 23.95C34.0878 24.12 34.3645 24.205 34.6978 24.205ZM36.1628 25V21.115H36.0428V17.8H37.0928V25H36.1628ZM40.9868 25.15C40.4501 25.15 39.9785 25.0333 39.5718 24.8C39.1685 24.5633 38.8535 24.235 38.6268 23.815C38.4035 23.3917 38.2918 22.9017 38.2918 22.345C38.2918 21.755 38.4018 21.2433 38.6218 20.81C38.8451 20.3767 39.1551 20.0417 39.5518 19.805C39.9485 19.5683 40.4101 19.45 40.9368 19.45C41.4868 19.45 41.9551 19.5783 42.3418 19.835C42.7285 20.0883 43.0168 20.45 43.2068 20.92C43.4001 21.39 43.4768 21.9483 43.4368 22.595H42.3918V22.215C42.3851 21.5883 42.2651 21.125 42.0318 20.825C41.8018 20.525 41.4501 20.375 40.9768 20.375C40.4535 20.375 40.0601 20.54 39.7968 20.87C39.5335 21.2 39.4018 21.6767 39.4018 22.3C39.4018 22.8933 39.5335 23.3533 39.7968 23.68C40.0601 24.0033 40.4401 24.165 40.9368 24.165C41.2635 24.165 41.5451 24.0917 41.7818 23.945C42.0218 23.795 42.2085 23.5817 42.3418 23.305L43.3668 23.63C43.1568 24.1133 42.8385 24.4883 42.4118 24.755C41.9851 25.0183 41.5101 25.15 40.9868 25.15ZM39.0618 22.595V21.78H42.9168V22.595H39.0618Z" fill="#686583"/>
  <path d="M45 18.5L48 21.5L45 24.5" stroke="#686583" stroke-linecap="round" stroke-linejoin="round"/>
  <path d="M48 18.5L51 21.5L48 24.5" stroke="#686583" stroke-linecap="round" stroke-linejoin="round"/>
</svg>
