<svg width="36" height="40" viewBox="0 0 36 40" fill="none" xmlns="http://www.w3.org/2000/svg">
  <path d="M2 0.6H34C34.7732 0.6 35.4 1.2268 35.4 2V38C35.4 38.7732 34.7732 39.4 34 39.4H2C1.2268 39.4 0.6 38.7732 0.6 38V2C0.6 1.2268 1.2268 0.6 2 0.6Z" fill="white" stroke="#686583" stroke-width="1.2"/>
  <path d="M4.87953 10V4.24H8.63953V5.256H5.96753V6.488H8.15953V7.504H5.96753V8.984H8.63953V10H4.87953ZM9.67828 10V4.24H10.7823L13.2863 8.08V4.24H14.3903V10H13.2863L10.7823 6.16V10H9.67828ZM16.9224 10V5.256H15.1064V4.24H19.8264V5.256H18.0104V10H16.9224ZM20.6292 10V4.24H21.7172V10H20.6292ZM24.3324 10V5.256H22.5164V4.24H27.2364V5.256H25.4204V10H24.3324ZM29.6094 10V7.656L27.6414 4.24H28.9134L30.1614 6.408L31.4094 4.24H32.6814L30.7134 7.656V10H29.6094Z" fill="#686583"/>
  <path d="M1 13.3999L35 13.3999" stroke="#686583" stroke-width="1.2"/>
  <line x1="2" y1="26.4" x2="34" y2="26.4" stroke="#D9D7E5" stroke-width="1.2"/>
</svg>
