<svg width="88" height="60" viewBox="0 0 88 60" fill="none" xmlns="http://www.w3.org/2000/svg">
  <rect x="0.666504" width="87.3333" height="60" rx="4" fill="#F8F8FA"/>
  <path d="M6.125 21.1874C6.125 20.0295 7.04142 19.0908 8.17188 19.0908H80.4948C81.6252 19.0908 82.5417 20.0295 82.5417 21.1874V39.3579C82.5417 40.5158 81.6252 41.4545 80.4948 41.4545H8.17188C7.04142 41.4545 6.125 40.5158 6.125 39.3579V21.1874Z" fill="white"/>
  <path d="M29.3838 34.07C28.9171 34.07 28.4971 33.99 28.1238 33.83C27.7504 33.6633 27.4571 33.43 27.2438 33.13C27.0304 32.83 26.9238 32.48 26.9238 32.08H28.1438C28.1704 32.38 28.2871 32.6267 28.4938 32.82C28.7071 33.0133 29.0038 33.11 29.3838 33.11C29.7771 33.11 30.0838 33.0167 30.3038 32.83C30.5238 32.6367 30.6338 32.39 30.6338 32.09C30.6338 31.8567 30.5638 31.6667 30.4238 31.52C30.2904 31.3733 30.1204 31.26 29.9138 31.18C29.7138 31.1 29.4338 31.0133 29.0738 30.92C28.6204 30.8 28.2504 30.68 27.9638 30.56C27.6838 30.4333 27.4438 30.24 27.2438 29.98C27.0438 29.72 26.9438 29.3733 26.9438 28.94C26.9438 28.54 27.0438 28.19 27.2438 27.89C27.4438 27.59 27.7238 27.36 28.0838 27.2C28.4438 27.04 28.8604 26.96 29.3338 26.96C30.0071 26.96 30.5571 27.13 30.9838 27.47C31.4171 27.8033 31.6571 28.2633 31.7038 28.85H30.4438C30.4238 28.5967 30.3038 28.38 30.0838 28.2C29.8638 28.02 29.5738 27.93 29.2138 27.93C28.8871 27.93 28.6204 28.0133 28.4138 28.18C28.2071 28.3467 28.1038 28.5867 28.1038 28.9C28.1038 29.1133 28.1671 29.29 28.2938 29.43C28.4271 29.5633 28.5938 29.67 28.7938 29.75C28.9938 29.83 29.2671 29.9167 29.6138 30.01C30.0738 30.1367 30.4471 30.2633 30.7338 30.39C31.0271 30.5167 31.2738 30.7133 31.4738 30.98C31.6804 31.24 31.7838 31.59 31.7838 32.03C31.7838 32.3833 31.6871 32.7167 31.4938 33.03C31.3071 33.3433 31.0304 33.5967 30.6638 33.79C30.3038 33.9767 29.8771 34.07 29.3838 34.07ZM38.1789 31.11C38.1789 31.3167 38.1656 31.5033 38.1389 31.67H33.9289C33.9622 32.11 34.1256 32.4633 34.4189 32.73C34.7122 32.9967 35.0722 33.13 35.4989 33.13C36.1122 33.13 36.5456 32.8733 36.7989 32.36H38.0289C37.8622 32.8667 37.5589 33.2833 37.1189 33.61C36.6856 33.93 36.1456 34.09 35.4989 34.09C34.9722 34.09 34.4989 33.9733 34.0789 33.74C33.6656 33.5 33.3389 33.1667 33.0989 32.74C32.8656 32.3067 32.7489 31.8067 32.7489 31.24C32.7489 30.6733 32.8622 30.1767 33.0889 29.75C33.3222 29.3167 33.6456 28.9833 34.0589 28.75C34.4789 28.5167 34.9589 28.4 35.4989 28.4C36.0189 28.4 36.4822 28.5133 36.8889 28.74C37.2956 28.9667 37.6122 29.2867 37.8389 29.7C38.0656 30.1067 38.1789 30.5767 38.1789 31.11ZM36.9889 30.75C36.9822 30.33 36.8322 29.9933 36.5389 29.74C36.2456 29.4867 35.8822 29.36 35.4489 29.36C35.0556 29.36 34.7189 29.4867 34.4389 29.74C34.1589 29.9867 33.9922 30.3233 33.9389 30.75H36.9889ZM38.9208 31.22C38.9208 30.6667 39.0341 30.1767 39.2608 29.75C39.4941 29.3233 39.8074 28.9933 40.2008 28.76C40.6008 28.52 41.0408 28.4 41.5208 28.4C41.9541 28.4 42.3308 28.4867 42.6508 28.66C42.9774 28.8267 43.2374 29.0367 43.4308 29.29V28.49H44.5808V34H43.4308V33.18C43.2374 33.44 42.9741 33.6567 42.6408 33.83C42.3074 34.0033 41.9274 34.09 41.5008 34.09C41.0274 34.09 40.5941 33.97 40.2008 33.73C39.8074 33.4833 39.4941 33.1433 39.2608 32.71C39.0341 32.27 38.9208 31.7733 38.9208 31.22ZM43.4308 31.24C43.4308 30.86 43.3508 30.53 43.1908 30.25C43.0374 29.97 42.8341 29.7567 42.5808 29.61C42.3274 29.4633 42.0541 29.39 41.7608 29.39C41.4674 29.39 41.1941 29.4633 40.9408 29.61C40.6874 29.75 40.4808 29.96 40.3208 30.24C40.1674 30.5133 40.0908 30.84 40.0908 31.22C40.0908 31.6 40.1674 31.9333 40.3208 32.22C40.4808 32.5067 40.6874 32.7267 40.9408 32.88C41.2008 33.0267 41.4741 33.1 41.7608 33.1C42.0541 33.1 42.3274 33.0267 42.5808 32.88C42.8341 32.7333 43.0374 32.52 43.1908 32.24C43.3508 31.9533 43.4308 31.62 43.4308 31.24ZM47.2181 29.29C47.3848 29.01 47.6048 28.7933 47.8781 28.64C48.1581 28.48 48.4881 28.4 48.8681 28.4V29.58H48.5781C48.1315 29.58 47.7915 29.6933 47.5581 29.92C47.3315 30.1467 47.2181 30.54 47.2181 31.1V34H46.0781V28.49H47.2181V29.29ZM49.536 31.24C49.536 30.6733 49.6493 30.1767 49.876 29.75C50.1093 29.3167 50.4293 28.9833 50.836 28.75C51.2427 28.5167 51.7093 28.4 52.236 28.4C52.9027 28.4 53.4527 28.56 53.886 28.88C54.326 29.1933 54.6227 29.6433 54.776 30.23H53.546C53.446 29.9567 53.286 29.7433 53.066 29.59C52.846 29.4367 52.5693 29.36 52.236 29.36C51.7693 29.36 51.396 29.5267 51.116 29.86C50.8427 30.1867 50.706 30.6467 50.706 31.24C50.706 31.8333 50.8427 32.2967 51.116 32.63C51.396 32.9633 51.7693 33.13 52.236 33.13C52.896 33.13 53.3327 32.84 53.546 32.26H54.776C54.616 32.82 54.316 33.2667 53.876 33.6C53.436 33.9267 52.8893 34.09 52.236 34.09C51.7093 34.09 51.2427 33.9733 50.836 33.74C50.4293 33.5 50.1093 33.1667 49.876 32.74C49.6493 32.3067 49.536 31.8067 49.536 31.24ZM58.7621 28.4C59.1821 28.4 59.5554 28.49 59.8821 28.67C60.2154 28.85 60.4754 29.1167 60.6621 29.47C60.8554 29.8233 60.9521 30.25 60.9521 30.75V34H59.8221V30.92C59.8221 30.4267 59.6988 30.05 59.4521 29.79C59.2054 29.5233 58.8688 29.39 58.4421 29.39C58.0154 29.39 57.6754 29.5233 57.4221 29.79C57.1754 30.05 57.0521 30.4267 57.0521 30.92V34H55.9121V26.6H57.0521V29.13C57.2454 28.8967 57.4888 28.7167 57.7821 28.59C58.0821 28.4633 58.4088 28.4 58.7621 28.4Z" fill="black"/>
  <path fill-rule="evenodd" clip-rule="evenodd" d="M80.4948 19.5172H8.17188C7.41824 19.5172 6.80729 20.143 6.80729 20.9149V39.0854C6.80729 39.8573 7.41824 40.4831 8.17188 40.4831H80.4948C81.2484 40.4831 81.8594 39.8573 81.8594 39.0854V20.9149C81.8594 20.143 81.2484 19.5172 80.4948 19.5172ZM8.17188 18.8184C7.04142 18.8184 6.125 19.757 6.125 20.9149V39.0854C6.125 40.2433 7.04142 41.182 8.17188 41.182H80.4948C81.6252 41.182 82.5417 40.2433 82.5417 39.0854V20.9149C82.5417 19.757 81.6252 18.8184 80.4948 18.8184H8.17188Z" fill="#D9D7E5"/>
  <path d="M15.4375 33.375C17.6121 33.375 19.375 31.6121 19.375 29.4375C19.375 27.2629 17.6121 25.5 15.4375 25.5C13.2629 25.5 11.5 27.2629 11.5 29.4375C11.5 31.6121 13.2629 33.375 15.4375 33.375Z" stroke="#131126" stroke-width="1.2" stroke-linecap="round" stroke-linejoin="round"/>
  <path d="M18.2217 32.2217L20.4998 34.4998" stroke="black" stroke-width="1.2" stroke-linecap="round" stroke-linejoin="round"/>
</svg>
