<svg width="88" height="60" viewBox="0 0 88 60" fill="none" xmlns="http://www.w3.org/2000/svg">
  <rect width="87.3333" height="60" rx="4" fill="#F8F8FA"/>
  <circle cx="24.3334" cy="30" r="2" fill="#D9D7E5"/>
  <path d="M46.3334 11C46.3334 12.1046 45.4379 13 44.3334 13C43.2288 13 42.3334 12.1046 42.3334 11C42.3334 9.89543 43.2288 9 44.3334 9C45.4379 9 46.3334 9.89543 46.3334 11Z" fill="#D9D7E5"/>
  <path d="M29.0834 30C29.0834 22.1299 35.4633 15.75 43.3334 15.75H44.3334C52.2034 15.75 58.5834 22.1299 58.5834 30C58.5834 37.8701 52.2034 44.25 44.3334 44.25H43.3334C35.4633 44.25 29.0834 37.8701 29.0834 30Z" fill="#DFF0FF" stroke="#549BFF" stroke-width="1.5"/>
  <circle cx="44.3334" cy="49" r="2" fill="#D9D7E5"/>
  <circle cx="63.3334" cy="30" r="2" fill="#D9D7E5"/>
</svg>
