<svg width="36" height="36" viewBox="0 0 36 36" fill="none" xmlns="http://www.w3.org/2000/svg">
  <path fill-rule="evenodd" clip-rule="evenodd" d="M1.4 0C0.626801 0 0 0.626802 0 1.4L0 34.6C0 35.3732 0.626802 36 1.4 36H35.2666C35.6717 36 36 35.6717 36 35.2666V1.4C36 0.626801 35.3732 0 34.6 0L1.4 0ZM35.9997 35.2666L35.9996 25.9999L25.9997 35.9999H35.2664C35.6714 35.9999 35.9997 35.6716 35.9997 35.2666Z" fill="#FFE263"/>
  <path d="M25.9994 36L25.9993 27.1C25.9993 26.4925 26.4918 26 27.0993 26L35.9993 26L25.9994 36Z" fill="#F0CD1A"/>
</svg>
