<svg width="37" height="36" viewBox="0 0 37 36" fill="none" xmlns="http://www.w3.org/2000/svg">
  <path fill-rule="evenodd" clip-rule="evenodd" d="M2.0665 0C1.29331 0 0.666504 0.626802 0.666504 1.4L0.666504 34.6C0.666504 35.3732 1.29331 36 2.0665 36H35.9332C36.3382 36 36.6665 35.6717 36.6665 35.2666V1.4C36.6665 0.626801 36.0397 0 35.2665 0L2.0665 0ZM36.6662 35.2666L36.6661 25.9999L26.6662 35.9999H35.9329C36.3379 35.9999 36.6662 35.6716 36.6662 35.2666Z" fill="#FFADDA"/>
  <path d="M26.6657 36L26.6655 27.1C26.6655 26.4925 27.158 26 27.7655 26L36.6655 26L26.6657 36Z" fill="#E07BAC"/>
</svg>
