<svg width="37" height="36" viewBox="0 0 37 36" fill="none" xmlns="http://www.w3.org/2000/svg">
  <path fill-rule="evenodd" clip-rule="evenodd" d="M1.7335 0C0.960297 0 0.333496 0.626802 0.333496 1.4L0.333496 34.6C0.333496 35.3732 0.960298 36 1.7335 36H35.6001C36.0052 36 36.3335 35.6717 36.3335 35.2666V1.4C36.3335 0.626801 35.7067 0 34.9335 0L1.7335 0ZM36.3332 35.2666L36.3331 25.9999L26.3332 35.9999H35.5999C36.0049 35.9999 36.3332 35.6716 36.3332 35.2666Z" fill="#BCEF97"/>
  <path d="M26.3327 36L26.3325 27.1C26.3325 26.4925 26.825 26 27.4325 26L36.3325 26L26.3327 36Z" fill="#76DE2B"/>
</svg>
