<svg width="43" height="40" viewBox="0 0 43 40" fill="none" xmlns="http://www.w3.org/2000/svg">
  <path d="M2.33301 0.6H40.333C41.1062 0.6 41.733 1.2268 41.733 2V38C41.733 38.7732 41.1062 39.4 40.333 39.4H2.33301C1.55981 39.4 0.933008 38.7732 0.933008 38V2C0.933008 1.2268 1.55981 0.6 2.33301 0.6Z" fill="white" stroke="#686583" stroke-width="1.2"/>
  <path d="M8.48229 11.12C8.05562 11.12 7.67029 11.0453 7.32629 10.896C6.98496 10.744 6.70362 10.528 6.48229 10.248C6.26362 9.96533 6.12495 9.62933 6.06629 9.24L7.20229 9.072C7.28229 9.40267 7.44762 9.65733 7.69829 9.836C7.94896 10.0147 8.23429 10.104 8.55429 10.104C8.73296 10.104 8.90629 10.076 9.07429 10.02C9.24229 9.964 9.37962 9.88133 9.48629 9.772C9.59562 9.66267 9.65029 9.528 9.65029 9.368C9.65029 9.30933 9.64096 9.25333 9.62229 9.2C9.60629 9.144 9.57829 9.092 9.53829 9.044C9.49829 8.996 9.44096 8.95067 9.36629 8.908C9.29429 8.86533 9.20229 8.82667 9.09029 8.792L7.59429 8.352C7.48229 8.32 7.35162 8.27467 7.20229 8.216C7.05562 8.15733 6.91296 8.07333 6.77429 7.964C6.63562 7.85467 6.51962 7.71067 6.42629 7.532C6.33562 7.35067 6.29029 7.12267 6.29029 6.848C6.29029 6.46133 6.38762 6.14 6.58229 5.884C6.77695 5.628 7.03695 5.43733 7.36229 5.312C7.68762 5.18667 8.04762 5.12533 8.44229 5.128C8.83962 5.13333 9.19429 5.20133 9.50629 5.332C9.81829 5.46267 10.0796 5.65333 10.2903 5.904C10.501 6.152 10.653 6.456 10.7463 6.816L9.57029 7.016C9.52762 6.82933 9.44896 6.672 9.33429 6.544C9.21962 6.416 9.08229 6.31867 8.92229 6.252C8.76496 6.18533 8.59962 6.14933 8.42629 6.144C8.25562 6.13867 8.09429 6.16267 7.94229 6.216C7.79296 6.26667 7.67029 6.34133 7.57429 6.44C7.48096 6.53867 7.43429 6.656 7.43429 6.792C7.43429 6.91733 7.47296 7.02 7.55029 7.1C7.62762 7.17733 7.72496 7.24 7.84229 7.288C7.95962 7.336 8.07962 7.376 8.20229 7.408L9.20229 7.68C9.35162 7.72 9.51696 7.77333 9.69829 7.84C9.87962 7.904 10.053 7.99467 10.2183 8.112C10.3863 8.22667 10.5236 8.37867 10.6303 8.568C10.7396 8.75733 10.7943 8.99733 10.7943 9.288C10.7943 9.59733 10.729 9.868 10.5983 10.1C10.4703 10.3293 10.297 10.52 10.0783 10.672C9.85962 10.8213 9.61162 10.9333 9.33429 11.008C9.05962 11.0827 8.77562 11.12 8.48229 11.12ZM12.9193 11V8.656L10.9513 5.24H12.2233L13.4713 7.408L14.7193 5.24H15.9913L14.0233 8.656V11H12.9193ZM18.5642 11.12C18.1375 11.12 17.7522 11.0453 17.4082 10.896C17.0668 10.744 16.7855 10.528 16.5642 10.248C16.3455 9.96533 16.2068 9.62933 16.1482 9.24L17.2842 9.072C17.3642 9.40267 17.5295 9.65733 17.7802 9.836C18.0308 10.0147 18.3162 10.104 18.6362 10.104C18.8148 10.104 18.9882 10.076 19.1562 10.02C19.3242 9.964 19.4615 9.88133 19.5682 9.772C19.6775 9.66267 19.7322 9.528 19.7322 9.368C19.7322 9.30933 19.7228 9.25333 19.7042 9.2C19.6882 9.144 19.6602 9.092 19.6202 9.044C19.5802 8.996 19.5228 8.95067 19.4482 8.908C19.3762 8.86533 19.2842 8.82667 19.1722 8.792L17.6762 8.352C17.5642 8.32 17.4335 8.27467 17.2842 8.216C17.1375 8.15733 16.9948 8.07333 16.8562 7.964C16.7175 7.85467 16.6015 7.71067 16.5082 7.532C16.4175 7.35067 16.3722 7.12267 16.3722 6.848C16.3722 6.46133 16.4695 6.14 16.6642 5.884C16.8588 5.628 17.1188 5.43733 17.4442 5.312C17.7695 5.18667 18.1295 5.12533 18.5242 5.128C18.9215 5.13333 19.2762 5.20133 19.5882 5.332C19.9002 5.46267 20.1615 5.65333 20.3722 5.904C20.5828 6.152 20.7348 6.456 20.8282 6.816L19.6522 7.016C19.6095 6.82933 19.5308 6.672 19.4162 6.544C19.3015 6.416 19.1642 6.31867 19.0042 6.252C18.8468 6.18533 18.6815 6.14933 18.5082 6.144C18.3375 6.13867 18.1762 6.16267 18.0242 6.216C17.8748 6.26667 17.7522 6.34133 17.6562 6.44C17.5628 6.53867 17.5162 6.656 17.5162 6.792C17.5162 6.91733 17.5548 7.02 17.6322 7.1C17.7095 7.17733 17.8068 7.24 17.9242 7.288C18.0415 7.336 18.1615 7.376 18.2842 7.408L19.2842 7.68C19.4335 7.72 19.5988 7.77333 19.7802 7.84C19.9615 7.904 20.1348 7.99467 20.3002 8.112C20.4682 8.22667 20.6055 8.37867 20.7122 8.568C20.8215 8.75733 20.8762 8.99733 20.8762 9.288C20.8762 9.59733 20.8108 9.868 20.6802 10.1C20.5522 10.3293 20.3788 10.52 20.1602 10.672C19.9415 10.8213 19.6935 10.9333 19.4162 11.008C19.1415 11.0827 18.8575 11.12 18.5642 11.12ZM23.1714 11V6.256H21.3554V5.24H26.0754V6.256H24.2594V11H23.1714ZM26.7982 11V5.24H30.5582V6.256H27.8862V7.488H30.0782V8.504H27.8862V9.984H30.5582V11H26.7982ZM31.5969 11V5.24H32.5729L34.4769 9.064L36.3809 5.24H37.3569V11H36.3409V7.56L34.6689 11H34.2849L32.6129 7.56V11H31.5969Z" fill="#686583"/>
  <rect x="9.33301" y="17" width="12" height="7" rx="2" fill="#EEEDF2"/>
  <rect x="9.33301" y="28" width="12" height="7" rx="2" fill="#EEEDF2"/>
  <rect x="24.333" y="21" width="10" height="10" rx="5" fill="#EEEDF2"/>
</svg>
