<svg width="77" height="24" viewBox="0 0 77 24" fill="none" xmlns="http://www.w3.org/2000/svg">
  <path d="M0.458252 3.18753C0.458252 2.02962 1.37467 1.09094 2.50513 1.09094H74.828C75.9585 1.09094 76.8749 2.02962 76.8749 3.18753V21.358C76.8749 22.5159 75.9585 23.4546 74.828 23.4546H2.50513C1.37467 23.4546 0.458252 22.5159 0.458252 21.358V3.18753Z" fill="white"/>
  <path d="M24.5683 8.77488V9.66261H22.8012V15.409H21.7122V9.66261H19.9355V8.77488H24.5683Z" fill="#131126"/>
  <path d="M30.4949 12.6503C30.4949 12.8476 30.4822 13.0258 30.4567 13.1849H26.4353C26.4671 13.6049 26.6231 13.9422 26.9033 14.1967C27.1835 14.4512 27.5274 14.5785 27.935 14.5785C28.5208 14.5785 28.9348 14.3335 29.1767 13.8435H30.3516C30.1924 14.3272 29.9027 14.7249 29.4824 15.0367C29.0685 15.3422 28.5527 15.4949 27.935 15.4949C27.4319 15.4949 26.9798 15.3835 26.5786 15.1608C26.1838 14.9317 25.8717 14.6135 25.6425 14.2062C25.4196 13.7926 25.3081 13.3153 25.3081 12.7744C25.3081 12.2335 25.4164 11.7594 25.6329 11.3522C25.8558 10.9385 26.1646 10.6203 26.5595 10.3976C26.9607 10.1749 27.4192 10.0635 27.935 10.0635C28.4317 10.0635 28.8743 10.1717 29.2627 10.3881C29.6512 10.6044 29.9536 10.9099 30.1702 11.3044C30.3867 11.6926 30.4949 12.1412 30.4949 12.6503ZM29.3582 12.3067C29.3519 11.9058 29.2086 11.5844 28.9284 11.3426C28.6482 11.1008 28.3011 10.9799 27.8872 10.9799C27.5115 10.9799 27.1899 11.1008 26.9224 11.3426C26.655 11.5781 26.4958 11.8994 26.4448 12.3067H29.3582Z" fill="#131126"/>
  <path d="M33.8208 12.7458L35.5211 15.409H34.2889L33.1522 13.624L32.0824 15.409H30.9457L32.6459 12.8222L30.9457 10.1494H32.1779L33.3146 11.9344L34.3844 10.1494H35.5211L33.8208 12.7458Z" fill="#131126"/>
  <path d="M37.6037 11.0372V13.9485C37.6037 14.1458 37.6483 14.289 37.7374 14.3781C37.8329 14.4608 37.9921 14.5022 38.215 14.5022H38.8837V15.409H38.024C37.5336 15.409 37.1579 15.2944 36.8968 15.0653C36.6357 14.8362 36.5052 14.464 36.5052 13.9485V11.0372H35.8843V10.1494H36.5052V8.8417H37.6037V10.1494H38.8837V11.0372H37.6037Z" fill="#131126"/>
  <path d="M40.9762 10.9322C41.1609 10.6776 41.4125 10.4708 41.7309 10.3117C42.0556 10.1462 42.4154 10.0635 42.8102 10.0635C43.2751 10.0635 43.6954 10.1749 44.0711 10.3976C44.4468 10.6203 44.743 10.9385 44.9595 11.3522C45.176 11.7594 45.2842 12.2272 45.2842 12.7553C45.2842 13.2835 45.176 13.7576 44.9595 14.1776C44.743 14.5912 44.4437 14.9158 44.0616 15.1512C43.6859 15.3803 43.2687 15.4949 42.8102 15.4949C42.4027 15.4949 42.0397 15.4153 41.7213 15.2562C41.4093 15.0972 41.1609 14.8935 40.9762 14.6453V15.409H39.8873V8.34534H40.9762V10.9322ZM44.1762 12.7553C44.1762 12.3926 44.0998 12.0808 43.9469 11.8199C43.8005 11.5526 43.6031 11.3522 43.3547 11.2185C43.1127 11.0785 42.8516 11.0085 42.5714 11.0085C42.2976 11.0085 42.0365 11.0785 41.7882 11.2185C41.5462 11.3585 41.3488 11.5622 41.1959 11.8294C41.0495 12.0967 40.9762 12.4117 40.9762 12.7744C40.9762 13.1372 41.0495 13.4553 41.1959 13.729C41.3488 13.9962 41.5462 14.1999 41.7882 14.3399C42.0365 14.4799 42.2976 14.5499 42.5714 14.5499C42.8516 14.5499 43.1127 14.4799 43.3547 14.3399C43.6031 14.1935 43.8005 13.9835 43.9469 13.7099C44.0998 13.4362 44.1762 13.1181 44.1762 12.7553Z" fill="#131126"/>
  <path d="M48.644 15.4949C48.1473 15.4949 47.6984 15.3835 47.2972 15.1608C46.896 14.9317 46.5808 14.6135 46.3515 14.2062C46.1223 13.7926 46.0077 13.3153 46.0077 12.7744C46.0077 12.2399 46.1255 11.7658 46.3611 11.3522C46.5967 10.9385 46.9183 10.6203 47.3258 10.3976C47.7334 10.1749 48.1887 10.0635 48.6918 10.0635C49.1949 10.0635 49.6502 10.1749 50.0577 10.3976C50.4653 10.6203 50.7869 10.9385 51.0225 11.3522C51.2581 11.7658 51.3759 12.2399 51.3759 12.7744C51.3759 13.309 51.2549 13.7831 51.013 14.1967C50.771 14.6103 50.4398 14.9317 50.0195 15.1608C49.6056 15.3835 49.1471 15.4949 48.644 15.4949ZM48.644 14.5499C48.9242 14.5499 49.1853 14.4831 49.4273 14.3494C49.6757 14.2158 49.8763 14.0153 50.0291 13.7481C50.1819 13.4808 50.2583 13.1562 50.2583 12.7744C50.2583 12.3926 50.1851 12.0712 50.0386 11.8103C49.8922 11.5431 49.6979 11.3426 49.456 11.209C49.214 11.0753 48.9529 11.0085 48.6727 11.0085C48.3925 11.0085 48.1314 11.0753 47.8894 11.209C47.6538 11.3426 47.4659 11.5431 47.3258 11.8103C47.1858 12.0712 47.1157 12.3926 47.1157 12.7744C47.1157 13.3408 47.259 13.7799 47.5455 14.0917C47.8385 14.3972 48.2046 14.5499 48.644 14.5499Z" fill="#131126"/>
  <path d="M54.7067 12.7458L56.407 15.409H55.1748L54.0381 13.624L52.9682 15.409H51.8315L53.5318 12.8222L51.8315 10.1494H53.0637L54.2004 11.9344L55.2703 10.1494H56.407L54.7067 12.7458Z" fill="#131126"/>
  <path fill-rule="evenodd" clip-rule="evenodd" d="M74.828 1.5171H2.50513C1.75149 1.5171 1.14054 2.14288 1.14054 2.91483V21.0853C1.14054 21.8572 1.75149 22.483 2.50513 22.483H74.828C75.5817 22.483 76.1926 21.8572 76.1926 21.0853V2.91483C76.1926 2.14289 75.5817 1.5171 74.828 1.5171ZM2.50513 0.818237C1.37467 0.818237 0.458252 1.75691 0.458252 2.91483V21.0853C0.458252 22.2432 1.37467 23.1819 2.50513 23.1819H74.828C75.9585 23.1819 76.8749 22.2432 76.8749 21.0853V2.91483C76.8749 1.75691 75.9585 0.818237 74.828 0.818237H2.50513Z" fill="#D9D7E5"/>
  <path fill-rule="evenodd" clip-rule="evenodd" d="M11.3749 8.42043C10.1503 8.42043 9.15747 9.41253 9.15747 10.6363C9.15747 11.8602 10.1503 12.8523 11.3749 12.8523C12.5996 12.8523 13.5924 11.8602 13.5924 10.6363C13.5924 9.41253 12.5996 8.42043 11.3749 8.42043ZM8.13403 10.6363C8.13403 8.84769 9.58503 7.39771 11.3749 7.39771C13.1648 7.39771 14.6158 8.84769 14.6158 10.6363C14.6158 12.425 13.1648 13.875 11.3749 13.875C9.58503 13.875 8.13403 12.425 8.13403 10.6363Z" fill="#131126"/>
  <path fill-rule="evenodd" clip-rule="evenodd" d="M11.375 13.875C10.6264 13.875 9.89096 14.0719 9.24258 14.4458C8.5942 14.8198 8.05571 15.3577 7.68121 16.0054C7.53983 16.25 7.22685 16.3337 6.98214 16.1924C6.73742 16.0511 6.65366 15.7384 6.79503 15.4938C7.25938 14.6906 7.92706 14.0237 8.73099 13.56C9.53493 13.0964 10.4468 12.8523 11.375 12.8523C12.3033 12.8523 13.2151 13.0964 14.0191 13.5601C14.823 14.0238 15.4907 14.6907 15.955 15.4939C16.0964 15.7385 16.0126 16.0512 15.7679 16.1925C15.5232 16.3338 15.2102 16.2501 15.0688 16.0055C14.6943 15.3577 14.1558 14.8198 13.5075 14.4459C12.8591 14.0719 12.1236 13.875 11.375 13.875Z" fill="#131126"/>
</svg>
