<svg width="88" height="60" viewBox="0 0 88 60" fill="none" xmlns="http://www.w3.org/2000/svg">
  <path d="M6.125 10.2787C6.125 9.12081 7.04142 8.18213 8.17187 8.18213H80.4948C81.6252 8.18213 82.5417 9.1208 82.5417 10.2787V49.4151C82.5417 50.573 81.6252 51.5117 80.4948 51.5117H8.17188C7.04142 51.5117 6.125 50.573 6.125 49.4151V10.2787Z" fill="white"/>
  <path fill-rule="evenodd" clip-rule="evenodd" d="M80.4948 8.88594H8.17188C7.41824 8.88594 6.80729 9.51616 6.80729 10.2936V49.7071C6.80729 50.4845 7.41824 51.1147 8.17188 51.1147H80.4948C81.2484 51.1147 81.8594 50.4845 81.8594 49.7071V10.2936C81.8594 9.51616 81.2484 8.88594 80.4948 8.88594ZM8.17188 8.18213C7.04142 8.18213 6.125 9.12745 6.125 10.2936V49.7071C6.125 50.8732 7.04142 51.8185 8.17188 51.8185H80.4948C81.6252 51.8185 82.5417 50.8732 82.5417 49.7071V10.2936C82.5417 9.12745 81.6252 8.18213 80.4948 8.18213H8.17188Z" fill="#D9D7E5"/>
  <path fill-rule="evenodd" clip-rule="evenodd" d="M81.0741 44.5709C81.2057 44.7057 81.2057 44.9242 81.0741 45.059L76.0923 50.1618C75.9607 50.2966 75.7474 50.2966 75.6158 50.1618C75.4842 50.0271 75.4842 49.8086 75.6158 49.6738L80.5977 44.5709C80.7293 44.4362 80.9426 44.4362 81.0741 44.5709Z" fill="#9C99B2"/>
  <path fill-rule="evenodd" clip-rule="evenodd" d="M80.733 47.7155C80.8645 47.8502 80.8645 48.0687 80.733 48.2035L79.1625 49.812C79.031 49.9468 78.8177 49.9468 78.6861 49.812C78.5545 49.6773 78.5545 49.4588 78.6861 49.324L80.2565 47.7155C80.3881 47.5807 80.6014 47.5807 80.733 47.7155Z" fill="#9C99B2"/>
  <path d="M16.5886 15.1841V16.0718H14.8214V21.8182H13.7325V16.0718H11.9558V15.1841H16.5886Z" fill="#131126"/>
  <path d="M22.5152 19.0595C22.5152 19.2568 22.5025 19.435 22.477 19.5941H18.4556C18.4874 20.0141 18.6434 20.3514 18.9236 20.6059C19.2038 20.8604 19.5477 20.9877 19.9552 20.9877C20.5411 20.9877 20.955 20.7427 21.197 20.2527H22.3719C22.2127 20.7364 21.923 21.1341 21.5027 21.4459C21.0887 21.7514 20.5729 21.9041 19.9552 21.9041C19.4522 21.9041 19 21.7927 18.5988 21.57C18.204 21.3409 17.892 21.0227 17.6627 20.6154C17.4399 20.2018 17.3284 19.7245 17.3284 19.1836C17.3284 18.6427 17.4367 18.1686 17.6532 17.7614C17.8761 17.3477 18.1849 17.0295 18.5797 16.8068C18.9809 16.5841 19.4394 16.4727 19.9552 16.4727C20.4519 16.4727 20.8945 16.5809 21.283 16.7973C21.6714 17.0136 21.9739 17.3191 22.1904 17.7136C22.4069 18.1018 22.5152 18.5504 22.5152 19.0595ZM21.3785 18.7159C21.3721 18.315 21.2288 17.9936 20.9486 17.7518C20.6685 17.51 20.3214 17.3891 19.9075 17.3891C19.5318 17.3891 19.2102 17.51 18.9427 17.7518C18.6753 17.9873 18.5161 18.3086 18.4651 18.7159H21.3785Z" fill="#131126"/>
  <path d="M25.8411 19.155L27.5414 21.8182H26.3092L25.1725 20.0332L24.1026 21.8182H22.9659L24.6662 19.2314L22.9659 16.5586H24.1981L25.3348 18.3436L26.4047 16.5586H27.5414L25.8411 19.155Z" fill="#131126"/>
  <path d="M29.624 17.4464V20.3577C29.624 20.555 29.6685 20.6982 29.7577 20.7873C29.8532 20.87 30.0124 20.9114 30.2353 20.9114H30.9039V21.8182H30.0442C29.5539 21.8182 29.1782 21.7036 28.9171 21.4745C28.656 21.2454 28.5255 20.8732 28.5255 20.3577V17.4464H27.9046V16.5586H28.5255V15.2509H29.624V16.5586H30.9039V17.4464H29.624Z" fill="#131126"/>
  <path d="M31.5446 19.1645C31.5446 18.6364 31.6529 18.1686 31.8694 17.7614C32.0922 17.3541 32.3915 17.0391 32.7673 16.8164C33.1493 16.5873 33.5696 16.4727 34.0281 16.4727C34.4421 16.4727 34.8019 16.5554 35.1075 16.7209C35.4196 16.88 35.6679 17.0804 35.8526 17.3223V16.5586H36.9511V21.8182H35.8526V21.0354C35.6679 21.2836 35.4164 21.4904 35.098 21.6559C34.7796 21.8214 34.4166 21.9041 34.009 21.9041C33.5569 21.9041 33.143 21.7895 32.7673 21.5604C32.3915 21.325 32.0922 21.0004 31.8694 20.5868C31.6529 20.1668 31.5446 19.6927 31.5446 19.1645ZM35.8526 19.1836C35.8526 18.8209 35.7762 18.5059 35.6233 18.2386C35.4769 17.9714 35.2826 17.7677 35.0407 17.6277C34.7987 17.4877 34.5376 17.4177 34.2574 17.4177C33.9772 17.4177 33.7161 17.4877 33.4741 17.6277C33.2321 17.7614 33.0347 17.9618 32.8819 18.2291C32.7354 18.49 32.6622 18.8018 32.6622 19.1645C32.6622 19.5273 32.7354 19.8454 32.8819 20.1191C33.0347 20.3927 33.2321 20.6027 33.4741 20.7491C33.7225 20.8891 33.9836 20.9591 34.2574 20.9591C34.5376 20.9591 34.7987 20.8891 35.0407 20.7491C35.2826 20.6091 35.4769 20.4054 35.6233 20.1382C35.7762 19.8645 35.8526 19.5464 35.8526 19.1836Z" fill="#131126"/>
  <path d="M39.4703 17.3223C39.6295 17.055 39.8396 16.8482 40.1007 16.7018C40.3682 16.5491 40.6834 16.4727 41.0464 16.4727V17.5991H40.7694C40.3427 17.5991 40.0179 17.7073 39.7951 17.9236C39.5785 18.14 39.4703 18.5154 39.4703 19.05V21.8182H38.3813V16.5586H39.4703V17.3223Z" fill="#131126"/>
  <path d="M46.8711 19.0595C46.8711 19.2568 46.8584 19.435 46.8329 19.5941H42.8115C42.8433 20.0141 42.9994 20.3514 43.2796 20.6059C43.5597 20.8604 43.9036 20.9877 44.3112 20.9877C44.897 20.9877 45.311 20.7427 45.5529 20.2527H46.7279C46.5687 20.7364 46.2789 21.1341 45.8586 21.4459C45.4447 21.7514 44.9289 21.9041 44.3112 21.9041C43.8081 21.9041 43.356 21.7927 42.9548 21.57C42.56 21.3409 42.2479 21.0227 42.0187 20.6154C41.7958 20.2018 41.6844 19.7245 41.6844 19.1836C41.6844 18.6427 41.7926 18.1686 42.0091 17.7614C42.232 17.3477 42.5409 17.0295 42.9357 16.8068C43.3369 16.5841 43.7954 16.4727 44.3112 16.4727C44.8079 16.4727 45.2505 16.5809 45.6389 16.7973C46.0274 17.0136 46.3298 17.3191 46.5464 17.7136C46.7629 18.1018 46.8711 18.5504 46.8711 19.0595ZM45.7344 18.7159C45.7281 18.315 45.5848 17.9936 45.3046 17.7518C45.0244 17.51 44.6773 17.3891 44.2634 17.3891C43.8877 17.3891 43.5661 17.51 43.2987 17.7518C43.0312 17.9873 42.872 18.3086 42.8211 18.7159H45.7344Z" fill="#131126"/>
  <path d="M47.5798 19.1645C47.5798 18.6364 47.688 18.1686 47.9045 17.7614C48.1274 17.3541 48.4267 17.0391 48.8024 16.8164C49.1845 16.5873 49.6048 16.4727 50.0633 16.4727C50.4772 16.4727 50.837 16.5554 51.1427 16.7209C51.4547 16.88 51.7031 17.0804 51.8878 17.3223V16.5586H52.9863V21.8182H51.8878V21.0354C51.7031 21.2836 51.4516 21.4904 51.1332 21.6559C50.8148 21.8214 50.4518 21.9041 50.0442 21.9041C49.5921 21.9041 49.1782 21.7895 48.8024 21.5604C48.4267 21.325 48.1274 21.0004 47.9045 20.5868C47.688 20.1668 47.5798 19.6927 47.5798 19.1645ZM51.8878 19.1836C51.8878 18.8209 51.8114 18.5059 51.6585 18.2386C51.5121 17.9714 51.3178 17.7677 51.0758 17.6277C50.8339 17.4877 50.5728 17.4177 50.2926 17.4177C50.0124 17.4177 49.7513 17.4877 49.5093 17.6277C49.2673 17.7614 49.0699 17.9618 48.9171 18.2291C48.7706 18.49 48.6974 18.8018 48.6974 19.1645C48.6974 19.5273 48.7706 19.8454 48.9171 20.1191C49.0699 20.3927 49.2673 20.6027 49.5093 20.7491C49.7577 20.8891 50.0187 20.9591 50.2926 20.9591C50.5728 20.9591 50.8339 20.8891 51.0758 20.7491C51.3178 20.6091 51.5121 20.4054 51.6585 20.1382C51.8114 19.8645 51.8878 19.5464 51.8878 19.1836Z" fill="#131126"/>
</svg>
