<svg width="25" height="10" viewBox="0 0 25 10" fill="none" xmlns="http://www.w3.org/2000/svg">
  <path d="M3.83748 9V1.374H0.891484V0.36H7.85148V1.374H4.90548V9H3.83748ZM10.6539 9.18C10.0179 9.18 9.46186 9.04 8.98586 8.76C8.51386 8.476 8.14586 8.082 7.88186 7.578C7.61786 7.07 7.48586 6.478 7.48586 5.802C7.48586 5.094 7.61586 4.482 7.87586 3.966C8.13586 3.446 8.49786 3.046 8.96186 2.766C9.42986 2.482 9.97786 2.34 10.6059 2.34C11.2579 2.34 11.8119 2.49 12.2679 2.79C12.7279 3.09 13.0719 3.518 13.2999 4.074C13.5319 4.63 13.6319 5.292 13.5999 6.06H12.5199V5.676C12.5079 4.88 12.3459 4.286 12.0339 3.894C11.7219 3.498 11.2579 3.3 10.6419 3.3C9.98186 3.3 9.47986 3.512 9.13586 3.936C8.79186 4.36 8.61986 4.968 8.61986 5.76C8.61986 6.524 8.79186 7.116 9.13586 7.536C9.47986 7.956 9.96986 8.166 10.6059 8.166C11.0339 8.166 11.4059 8.068 11.7219 7.872C12.0379 7.676 12.2859 7.394 12.4659 7.026L13.4919 7.38C13.2399 7.952 12.8599 8.396 12.3519 8.712C11.8479 9.024 11.2819 9.18 10.6539 9.18ZM8.25986 6.06V5.202H13.0479V6.06H8.25986ZM13.9813 9L16.4593 5.724L14.0353 2.52H15.3073L17.0833 4.896L18.8413 2.52H20.1133L17.6893 5.724L20.1733 9H18.8953L17.0833 6.552L15.2593 9H13.9813ZM24.7529 9C24.3689 9.076 23.9889 9.106 23.6129 9.09C23.2409 9.078 22.9089 9.004 22.6169 8.868C22.3249 8.728 22.1029 8.512 21.9509 8.22C21.8229 7.964 21.7529 7.706 21.7409 7.446C21.7329 7.182 21.7289 6.884 21.7289 6.552V0.719999H22.7969V6.504C22.7969 6.768 22.7989 6.994 22.8029 7.182C22.8109 7.37 22.8529 7.532 22.9289 7.668C23.0729 7.924 23.3009 8.074 23.6129 8.118C23.9289 8.162 24.3089 8.15 24.7529 8.082V9ZM20.4149 3.402V2.52H24.7529V3.402H20.4149Z" fill="#3F3C59"/>
</svg>
