<svg width="57" height="15" viewBox="0 0 57 15" fill="none" xmlns="http://www.w3.org/2000/svg">
  <path d="M0.54999 10.5V0.42H2.45399V4.564H6.96199V0.42H8.86599V10.5H6.96199V6.342H2.45399V10.5H0.54999ZM14.4852 10.71C13.7106 10.71 13.0269 10.5443 12.4342 10.213C11.8462 9.877 11.3842 9.41733 11.0482 8.834C10.7169 8.246 10.5512 7.574 10.5512 6.818C10.5512 5.992 10.7146 5.27333 11.0412 4.662C11.3679 4.05067 11.8182 3.577 12.3922 3.241C12.9662 2.90033 13.6266 2.73 14.3732 2.73C15.1666 2.73 15.8409 2.91667 16.3962 3.29C16.9516 3.66333 17.3622 4.18833 17.6282 4.865C17.8942 5.54167 17.9876 6.33733 17.9082 7.252H16.0252V6.552C16.0252 5.782 15.9016 5.229 15.6542 4.893C15.4116 4.55233 15.0126 4.382 14.4572 4.382C13.8086 4.382 13.3302 4.58033 13.0222 4.977C12.7189 5.369 12.5672 5.95 12.5672 6.72C12.5672 7.42467 12.7189 7.97067 13.0222 8.358C13.3302 8.74067 13.7806 8.932 14.3732 8.932C14.7466 8.932 15.0662 8.85033 15.3322 8.687C15.5982 8.52367 15.8012 8.288 15.9412 7.98L17.8452 8.526C17.5606 9.21667 17.1102 9.75333 16.4942 10.136C15.8829 10.5187 15.2132 10.71 14.4852 10.71ZM11.9792 7.252V5.838H16.9912V7.252H11.9792ZM21.5921 10.71C21.0508 10.71 20.5911 10.6073 20.2131 10.402C19.8398 10.192 19.5551 9.91433 19.3591 9.569C19.1678 9.219 19.0721 8.834 19.0721 8.414C19.0721 8.064 19.1258 7.74433 19.2331 7.455C19.3404 7.16567 19.5131 6.91133 19.7511 6.692C19.9938 6.468 20.3181 6.28133 20.7241 6.132C21.0041 6.02933 21.3378 5.93833 21.7251 5.859C22.1124 5.77967 22.5511 5.705 23.0411 5.635C23.5311 5.56033 24.0701 5.47867 24.6581 5.39L23.9721 5.768C23.9721 5.32 23.8648 4.991 23.6501 4.781C23.4354 4.571 23.0761 4.466 22.5721 4.466C22.2921 4.466 22.0004 4.53367 21.6971 4.669C21.3938 4.80433 21.1814 5.04467 21.0601 5.39L19.3381 4.844C19.5294 4.21867 19.8888 3.71 20.4161 3.318C20.9434 2.926 21.6621 2.73 22.5721 2.73C23.2394 2.73 23.8321 2.83267 24.3501 3.038C24.8681 3.24333 25.2601 3.598 25.5261 4.102C25.6754 4.382 25.7641 4.662 25.7921 4.942C25.8201 5.222 25.8341 5.53467 25.8341 5.88V10.5H24.1681V8.946L24.4061 9.268C24.0374 9.77667 23.6384 10.1453 23.2091 10.374C22.7844 10.598 22.2454 10.71 21.5921 10.71ZM21.9981 9.212C22.3481 9.212 22.6421 9.15133 22.8801 9.03C23.1228 8.904 23.3141 8.76167 23.4541 8.603C23.5988 8.44433 23.6968 8.31133 23.7481 8.204C23.8461 7.99867 23.9021 7.76067 23.9161 7.49C23.9348 7.21467 23.9441 6.986 23.9441 6.804L24.5041 6.944C23.9394 7.03733 23.4821 7.11667 23.1321 7.182C22.7821 7.24267 22.4998 7.29867 22.2851 7.35C22.0704 7.40133 21.8814 7.45733 21.7181 7.518C21.5314 7.59267 21.3798 7.67433 21.2631 7.763C21.1511 7.847 21.0671 7.94033 21.0111 8.043C20.9598 8.14567 20.9341 8.26 20.9341 8.386C20.9341 8.55867 20.9761 8.708 21.0601 8.834C21.1488 8.95533 21.2724 9.04867 21.4311 9.114C21.5898 9.17933 21.7788 9.212 21.9981 9.212ZM30.8602 10.71C30.1649 10.71 29.5559 10.535 29.0332 10.185C28.5105 9.835 28.1022 9.359 27.8082 8.757C27.5189 8.155 27.3742 7.476 27.3742 6.72C27.3742 5.95 27.5212 5.26633 27.8152 4.669C28.1139 4.067 28.5315 3.59333 29.0682 3.248C29.6049 2.90267 30.2349 2.73 30.9582 2.73C31.6769 2.73 32.2812 2.905 32.7712 3.255C33.2612 3.605 33.6322 4.081 33.8842 4.683C34.1362 5.285 34.2622 5.964 34.2622 6.72C34.2622 7.476 34.1339 8.155 33.8772 8.757C33.6252 9.359 33.2472 9.835 32.7432 10.185C32.2392 10.535 31.6115 10.71 30.8602 10.71ZM31.1682 9.016C31.5929 9.016 31.9312 8.92033 32.1832 8.729C32.4399 8.53767 32.6242 8.26933 32.7362 7.924C32.8482 7.57867 32.9042 7.17733 32.9042 6.72C32.9042 6.26267 32.8482 5.86133 32.7362 5.516C32.6242 5.17067 32.4445 4.90233 32.1972 4.711C31.9545 4.51967 31.6349 4.424 31.2382 4.424C30.8135 4.424 30.4635 4.529 30.1882 4.739C29.9175 4.94433 29.7169 5.222 29.5862 5.572C29.4555 5.91733 29.3902 6.3 29.3902 6.72C29.3902 7.14467 29.4532 7.532 29.5792 7.882C29.7052 8.22733 29.8989 8.50267 30.1602 8.708C30.4215 8.91333 30.7575 9.016 31.1682 9.016ZM32.9042 10.5V5.32H32.6662V0.42H34.5842V10.5H32.9042ZM36.8242 1.89V0.21H38.7282V1.89H36.8242ZM36.8242 10.5V2.94H38.7282V10.5H36.8242ZM46.1188 10.5V6.93C46.1188 6.75733 46.1095 6.538 46.0908 6.272C46.0721 6.00133 46.0138 5.73067 45.9158 5.46C45.8178 5.18933 45.6568 4.963 45.4328 4.781C45.2135 4.599 44.9008 4.508 44.4948 4.508C44.3315 4.508 44.1565 4.53367 43.9698 4.585C43.7831 4.63633 43.6081 4.73667 43.4448 4.886C43.2815 5.03067 43.1461 5.24533 43.0388 5.53C42.9361 5.81467 42.8848 6.19267 42.8848 6.664L41.7928 6.146C41.7928 5.54867 41.9141 4.98867 42.1568 4.466C42.3995 3.94333 42.7635 3.521 43.2488 3.199C43.7388 2.877 44.3548 2.716 45.0968 2.716C45.6895 2.716 46.1725 2.81633 46.5458 3.017C46.9191 3.21767 47.2085 3.472 47.4138 3.78C47.6238 4.088 47.7731 4.41 47.8618 4.746C47.9505 5.07733 48.0041 5.38067 48.0228 5.656C48.0415 5.93133 48.0508 6.132 48.0508 6.258V10.5H46.1188ZM40.9528 10.5V2.94H42.6468V5.446H42.8848V10.5H40.9528ZM53.2412 14.07C52.8118 14.07 52.4035 14 52.0162 13.86C51.6288 13.7247 51.2812 13.5333 50.9732 13.286C50.6698 13.0433 50.4225 12.7587 50.2312 12.432L51.9952 11.578C52.1165 11.802 52.2892 11.9723 52.5132 12.089C52.7418 12.2057 52.9892 12.264 53.2552 12.264C53.5398 12.264 53.8082 12.215 54.0602 12.117C54.3122 12.0237 54.5128 11.8813 54.6622 11.69C54.8162 11.5033 54.8885 11.27 54.8792 10.99V8.792H55.1172V2.94H56.7832V11.018C56.7832 11.2047 56.7738 11.3797 56.7552 11.543C56.7412 11.711 56.7132 11.8767 56.6712 12.04C56.5498 12.502 56.3235 12.8823 55.9922 13.181C55.6655 13.4797 55.2642 13.7013 54.7882 13.846C54.3122 13.9953 53.7965 14.07 53.2412 14.07ZM53.0732 10.71C52.3778 10.71 51.7688 10.535 51.2462 10.185C50.7235 9.835 50.3152 9.359 50.0212 8.757C49.7318 8.155 49.5872 7.476 49.5872 6.72C49.5872 5.95 49.7342 5.26633 50.0282 4.669C50.3268 4.067 50.7445 3.59333 51.2812 3.248C51.8178 2.90267 52.4478 2.73 53.1712 2.73C53.8898 2.73 54.4942 2.905 54.9842 3.255C55.4742 3.605 55.8452 4.081 56.0972 4.683C56.3492 5.285 56.4752 5.964 56.4752 6.72C56.4752 7.476 56.3468 8.155 56.0902 8.757C55.8382 9.359 55.4602 9.835 54.9562 10.185C54.4522 10.535 53.8245 10.71 53.0732 10.71ZM53.3812 9.016C53.8058 9.016 54.1442 8.92033 54.3962 8.729C54.6528 8.53767 54.8372 8.26933 54.9492 7.924C55.0612 7.57867 55.1172 7.17733 55.1172 6.72C55.1172 6.26267 55.0612 5.86133 54.9492 5.516C54.8372 5.17067 54.6575 4.90233 54.4102 4.711C54.1675 4.51967 53.8478 4.424 53.4512 4.424C53.0265 4.424 52.6765 4.529 52.4012 4.739C52.1305 4.94433 51.9298 5.222 51.7992 5.572C51.6685 5.91733 51.6032 6.3 51.6032 6.72C51.6032 7.14467 51.6662 7.532 51.7922 7.882C51.9182 8.22733 52.1118 8.50267 52.3732 8.708C52.6345 8.91333 52.9705 9.016 53.3812 9.016Z" fill="#3F3C59"/>
</svg>
