<svg width="66" height="40" viewBox="0 0 66 40" fill="none" xmlns="http://www.w3.org/2000/svg">
  <path d="M8.6665 0.6H56.6665C57.4397 0.6 58.0665 1.2268 58.0665 2V38C58.0665 38.7732 57.4397 39.4 56.6665 39.4H8.66651C7.89331 39.4 7.2665 38.7732 7.2665 38V2C7.2665 1.2268 7.89331 0.6 8.6665 0.6Z" fill="white" stroke="#686583" stroke-width="1.2"/>
  <path d="M19.546 10V4.24H23.306V5.256H20.634V6.488H22.826V7.504H20.634V8.984H23.306V10H19.546ZM24.3448 10V4.24H25.4488L27.9528 8.08V4.24H29.0568V10H27.9528L25.4488 6.16V10H24.3448ZM31.5889 10V5.256H29.7729V4.24H34.4929V5.256H32.6769V10H31.5889ZM35.2957 10V4.24H36.3837V10H35.2957ZM38.9989 10V5.256H37.1829V4.24H41.9029V5.256H40.0869V10H38.9989ZM44.2759 10V7.656L42.3079 4.24H43.5799L44.8279 6.408L46.0759 4.24H47.3479L45.3799 7.656V10H44.2759Z" fill="#686583"/>
  <line x1="6.6665" y1="13.4" x2="58.6665" y2="13.4" stroke="#686583" stroke-width="1.2"/>
  <line x1="8.6665" y1="26.4" x2="56.6665" y2="26.4" stroke="#D9D7E5" stroke-width="1.2"/>
  <line x1="32.0665" y1="38" x2="32.0665" y2="15" stroke="#D9D7E5" stroke-width="1.2"/>
  <path d="M2 0.6H64C64.7732 0.6 65.4 1.2268 65.4 2V38C65.4 38.7732 64.7732 39.4 64 39.4H2C1.2268 39.4 0.6 38.7732 0.6 38V2C0.6 1.2268 1.2268 0.6 2 0.6Z" fill="white" stroke="#686583" stroke-width="1.2"/>
  <path d="M19.8795 10V4.24H23.6395V5.256H20.9675V6.488H23.1595V7.504H20.9675V8.984H23.6395V10H19.8795ZM24.6783 10V4.24H25.7823L28.2863 8.08V4.24H29.3903V10H28.2863L25.7823 6.16V10H24.6783ZM31.9224 10V5.256H30.1064V4.24H34.8264V5.256H33.0104V10H31.9224ZM35.6292 10V4.24H36.7172V10H35.6292ZM39.3324 10V5.256H37.5164V4.24H42.2364V5.256H40.4204V10H39.3324ZM44.6094 10V7.656L42.6414 4.24H43.9134L45.1614 6.408L46.4094 4.24H47.6814L45.7134 7.656V10H44.6094Z" fill="#686583"/>
  <line x1="1" y1="13.4" x2="65" y2="13.4" stroke="#686583" stroke-width="1.2"/>
  <line x1="2" y1="26.4" x2="64" y2="26.4" stroke="#D9D7E5" stroke-width="1.2"/>
  <line x1="22.4" y1="38" x2="22.4" y2="15" stroke="#D9D7E5" stroke-width="1.2"/>
  <line x1="44.4" y1="38" x2="44.4" y2="15" stroke="#D9D7E5" stroke-width="1.2"/>
</svg>
