<svg width="37" height="13" viewBox="0 0 37 13" fill="none" xmlns="http://www.w3.org/2000/svg">
  <path d="M4.09956 12V2.512H0.467564V0.48H9.90756V2.512H6.27556V12H4.09956ZM11.5132 2.16V0.24H13.6892V2.16H11.5132ZM11.5132 12V3.36H13.6892V12H11.5132ZM21.4316 12C20.8342 12.112 20.2476 12.16 19.6716 12.144C19.1009 12.1333 18.5889 12.0347 18.1356 11.848C17.6876 11.656 17.3462 11.3493 17.1116 10.928C16.8982 10.5333 16.7862 10.1333 16.7756 9.728C16.7649 9.31733 16.7596 8.85333 16.7596 8.336V0.959999H18.9356V8.208C18.9356 8.544 18.9382 8.848 18.9436 9.12C18.9542 9.38667 19.0102 9.6 19.1116 9.76C19.3036 10.064 19.6102 10.2293 20.0316 10.256C20.4529 10.2827 20.9196 10.2613 21.4316 10.192V12ZM15.2876 5.04V3.36H21.4316V5.04H15.2876ZM23.6769 12V0.24H25.8529V12H23.6769ZM32.4273 12.24C31.542 12.24 30.7606 12.0507 30.0833 11.672C29.4113 11.288 28.8833 10.7627 28.4993 10.096C28.1206 9.424 27.9313 8.656 27.9313 7.792C27.9313 6.848 28.118 6.02667 28.4913 5.328C28.8646 4.62933 29.3793 4.088 30.0353 3.704C30.6913 3.31467 31.446 3.12 32.2993 3.12C33.206 3.12 33.9766 3.33333 34.6113 3.76C35.246 4.18667 35.7153 4.78667 36.0193 5.56C36.3233 6.33333 36.43 7.24267 36.3393 8.288H34.1873V7.488C34.1873 6.608 34.046 5.976 33.7633 5.592C33.486 5.20267 33.03 5.008 32.3953 5.008C31.654 5.008 31.1073 5.23467 30.7553 5.688C30.4086 6.136 30.2353 6.8 30.2353 7.68C30.2353 8.48533 30.4086 9.10933 30.7553 9.552C31.1073 9.98933 31.622 10.208 32.2993 10.208C32.726 10.208 33.0913 10.1147 33.3953 9.928C33.6993 9.74133 33.9313 9.472 34.0913 9.12L36.2673 9.744C35.942 10.5333 35.4273 11.1467 34.7233 11.584C34.0246 12.0213 33.2593 12.24 32.4273 12.24ZM29.5633 8.288V6.672H35.2913V8.288H29.5633Z" fill="#3F3C59"/>
</svg>
