<svg width="53" height="40" viewBox="0 0 53 40" fill="none" xmlns="http://www.w3.org/2000/svg">
  <path d="M2.6665 0.6H50.6665C51.4397 0.6 52.0665 1.2268 52.0665 2V38C52.0665 38.7732 51.4397 39.4 50.6665 39.4H2.66651C1.89331 39.4 1.2665 38.7732 1.2665 38V2C1.2665 1.2268 1.89331 0.6 2.6665 0.6Z" fill="white" stroke="#686583" stroke-width="1.2"/>
  <path d="M13.546 10V4.24H17.306V5.256H14.634V6.488H16.826V7.504H14.634V8.984H17.306V10H13.546ZM18.3448 10V4.24H19.4488L21.9528 8.08V4.24H23.0568V10H21.9528L19.4488 6.16V10H18.3448ZM25.5889 10V5.256H23.7729V4.24H28.4929V5.256H26.6769V10H25.5889ZM29.2957 10V4.24H30.3837V10H29.2957ZM32.9989 10V5.256H31.1829V4.24H35.9029V5.256H34.0869V10H32.9989ZM38.2759 10V7.656L36.3079 4.24H37.5799L38.8279 6.408L40.0759 4.24H41.3479L39.3799 7.656V10H38.2759Z" fill="#686583"/>
  <line x1="0.666504" y1="13.4" x2="52.6665" y2="13.4" stroke="#686583" stroke-width="1.2"/>
  <line x1="2.6665" y1="26.4" x2="50.6665" y2="26.4" stroke="#D9D7E5" stroke-width="1.2"/>
  <line x1="26.0665" y1="38" x2="26.0665" y2="15" stroke="#D9D7E5" stroke-width="1.2"/>
</svg>
