<svg width="54" height="38" viewBox="0 0 54 38" fill="none" xmlns="http://www.w3.org/2000/svg">
  <circle cx="2" cy="19" r="2" fill="#D9D7E5"/>
  <path d="M29.3335 2C29.3335 3.10457 28.4381 4 27.3335 4C26.2289 4 25.3335 3.10457 25.3335 2C25.3335 0.89543 26.2289 0 27.3335 0C28.4381 0 29.3335 0.89543 29.3335 2Z" fill="#D9D7E5"/>
  <path d="M27 31.25C21.3178 31.25 16.2093 29.8227 12.5455 27.5547C8.87027 25.2795 6.75 22.2344 6.75 19C6.75 15.7656 8.87027 12.7205 12.5455 10.4453C16.2093 8.17729 21.3178 6.75 27 6.75C32.6822 6.75 37.7907 8.17729 41.4545 10.4453C45.1297 12.7205 47.25 15.7656 47.25 19C47.25 22.2344 45.1297 25.2795 41.4545 27.5547C37.7907 29.8227 32.6822 31.25 27 31.25Z" fill="#DFF0FF" stroke="#549BFF" stroke-width="1.5"/>
  <circle cx="27.3335" cy="36" r="2" fill="#D9D7E5"/>
  <circle cx="52" cy="19" r="2" fill="#D9D7E5"/>
</svg>
